<svg id="Layer_1" data-name="Layer 1" xmlns="http://www.w3.org/2000/svg" viewBox="0 0 1024 853"><defs><style>.cls-1{fill:#d1a080;}.cls-2{fill:#17332c;}.cls-3{fill:#fcd894;}.cls-4{fill:#20443a;}.cls-5{fill:#26473e;}.cls-6{fill:#f7b790;}.cls-7{fill:#f29870;}.cls-8{fill:#fbb68c;}.cls-9{fill:#c3d2e1;}.cls-10{fill:#5c4b43;}.cls-11{fill:#4b3f37;}.cls-12{fill:#872c33;}.cls-13{fill:#e5e2e9;}.cls-14{fill:#d07126;}.cls-15{fill:#fab581;}.cls-16{fill:#c1d3e1;}.cls-17{fill:#3f2727;}.cls-18{fill:#fbb68e;}.cls-19{fill:#e49975;}.cls-20{fill:#e6ecf0;}.cls-21{fill:#c3d2df;}.cls-22{fill:#513e37;}.cls-23{fill:#584a41;}.cls-24{fill:#ee9f78;}.cls-25{fill:#623f35;}.cls-26{fill:#fffdfe;}.cls-27{fill:#866c61;}.cls-28{fill:#5a4032;}</style></defs><title>faculty8</title><rect class="cls-1" x="60.77" y="27.09" width="903.06" height="519.32"/><rect class="cls-2" x="84.51" y="50.06" width="859.4" height="456.51"/><path class="cls-3" d="M943.15,524.19H85.28V505l857.87.77"/><path class="cls-4" d="M932.43,498.91V58.49h-838V498.91"/><path class="cls-5" d="M450.43,197.49l-2.76-.86c-17.07-4.42-34.74-4.35-54.4-6.46-13.8-2-29.69-1.07-43.65-1,16.55.75,33.44.89,50,2.11s32.8,3.45,47.72,8.08a26.3,26.3,0,0,1-5.31,2.18,17.06,17.06,0,0,1-6.06.64c-2.56-.39-5.1-.82-7.66-1.15l-7.7-.9c-5.1-.63-10.26-1-15.38-1.36,0-.91.08-2.68.1-3.58-29.33,1.88-57.17-4.66-87.38-.26,1.07.48.43,1.21.2,1.79h0c-.2.51-.08.91,1.8.91-1.88,0-2-.4-1.8-.91,29.76-.78,57.22-.53,85.91,2-22.26-1.48-44.53-1.14-67.19-.84s-45.8.71-70-.81l-8.24-.53a72.17,72.17,0,0,0-12.13-3.91c-1-.24-2-.44-3.05-.65s-2-.43-3.06-.62c-2-.38-4.09-.68-6.15-.93,2.57-4.23-4.31-14.1,11.5-10.41.09-.9.28-2.69.37-3.58-7.74-3.17-12.57-8.09-13.44-12.38s2.14-8,9.9-8.88c2.19-.22,4.41-.2,6.76-.28s4.73,0,7.17.14c4.88.31,10.06.61,15.33,1.09,2.62.25,5.32.42,8,.59s5.42.33,8.15.46c5.47.18,11,.21,16.33-.15,15.66-.65,31.48-1.69,47.47,0,22,2.59,46.34,1.58,68.68,6.3a50.07,50.07,0,0,0,7,.52l3.9,0,3.92.11c5.14.18,9.75.51,11.68,2,2.82,1.6,2.73,3.52,2.08,5.6-3.32-.47-6.64-.75-10-1.07s-6.63-.69-9.94-.9c-6.61-.46-13.2-1-19.74-1.33-16-1.53-32.05-2.73-48-4.44,15.57,2.4,31.64,3.42,48,4.44,6.52.57,13.05,1.35,19.56,2.11,3.25.34,6.51.89,9.76,1.33s6.5.9,9.74,1.53c-.66,1.78-1.3,3.64-.68,5.49l6,.64c7.47,5.32,4.59,11.35.25,15.41C453,195.69,451.76,196.59,450.43,197.49Z"/><path class="cls-5" d="M266.45,237.68c1.06-.43,2.12-.89,3.18-1.24a179.53,179.53,0,0,1,27.91-8.5,224.52,224.52,0,0,1,27.31-4.28c1.63-.08,3.23-.23,4.87-.41s3.25-.44,4.89-.72c3.28-.51,6.58-1.33,9.87-2.12,6.56-1.74,13-3.78,19.1-5.72-7.31,1.89-14.7,3.68-22.13,5.25-3.71.81-7.45,1.47-11.17,2.13s-7.57,1.19-11.49,1.73c-7.82,1.09-15.94,2.09-24.34,3.55-4.2.7-8.5,1.63-12.85,2.65-2.18.6-4.38,1.09-6.59,1.81-1.1.34-2.21.65-3.32,1L268.34,234a23.9,23.9,0,0,1,4.31-5.28,20,20,0,0,1,6.26-3.94c11.91-3.76,22.88-5.49,33-7.11.17.89.52,2.63.69,3.51a194.21,194.21,0,0,1,19.83-4.49c6.34-1.14,12.7-2.29,19.06-3.6,12.7-2.68,25.41-6.26,37.38-13.21-1.07-.1-.79-1-.81-1.61l.18-.07-.18.07c0-.54-.26-.87-1.84-.27,1.58-.6,1.83-.27,1.84.27a272.64,272.64,0,0,1-36.8,12.44c-3.07.81-6.15,1.49-9.23,2.19s-6.19,1.29-9.3,1.78c-6.16,1.1-12.66,1.87-19.68,2.81,5.42-.85,10.6-1.65,15.51-2.55,2.43-.49,4.86-1,7.29-1.48s4.85-1.11,7.26-1.72c9.66-2.43,19.23-5.45,28.77-8.84C391,196.1,410,187.77,430,179.25l6.84-2.92c2-.11,3.93-.33,5.7-.59a42.51,42.51,0,0,0,4.94-1,22.77,22.77,0,0,0,7.39-3.35,11.87,11.87,0,0,0,2.26,3.28,28.08,28.08,0,0,1,2.74,3.24,3.26,3.26,0,0,1,.31,3.51c-.67,1.25-2.38,2.6-5.71,3.79.4.81,1.22,2.41,1.62,3.22a61.74,61.74,0,0,1,10.48-.9c3.17,0,6,.26,8.07,1.2a6.57,6.57,0,0,1,2.33,2,4.57,4.57,0,0,1,.68,1.36,5.61,5.61,0,0,1,.08,1.76c-.22,2.54-2.12,6.07-6,9.51a62.8,62.8,0,0,1-13.93,8.75c-2.3,1.1-4.48,2.06-6.79,3s-4.66,1.94-7.06,2.89c-9.6,3.84-19.81,7.63-29.24,12.34C400.85,236.87,386.53,243.12,371,246c-10.68,1.89-21.71,4.4-33,6.23a288.23,288.23,0,0,1-31.21,3.33c-3.44.38-7.73,2.06-11.36,3.6-1.84.75-3.47,1.52-4.94,2a6.29,6.29,0,0,1-3.65.43c-2.46-.14-3.51-1.74-4.22-3.79,9.5-4.84,20.58-7.6,32.18-9.56,7.18-1,14.6-1.71,22.27-2.75s15.29-2.21,22.94-3.42c-7.58.84-15.14,1.94-22.81,2.93s-15.14,2-22.4,3.24c-11.66,1.54-22.75,3.61-32.7,7.88-.53-1.8-1.05-3.7-2.51-4.93l-1.79,1c-1,.56-2.11,1.3-2.88,1.77-4.22.1-7.07-1.08-8.72-3.24s-2-5.2-1.45-8.37A37.18,37.18,0,0,1,266.45,237.68Z"/><path class="cls-5" d="M637.12,283.5l-4.56-.1c-27.92,0-55.52,3-86.37,2.85-21.6-.64-46.13,1.27-67.63,1.84,25.5.11,51.66-.67,77.61-1.38s51.7-1.26,76.55-.55a43.38,43.38,0,0,1-17.47,5.45l-49.51,1.87c-.06-.9-.17-2.67-.23-3.56-23,2.76-45.43,2.72-67.77,2.58s-44.63-.27-67.65,2.33c1.65.45.69,1.2.36,1.79h0c-.3.51-.11.91,2.76.86-2.87,0-3.06-.35-2.76-.86,45.36-1.6,87.85-2,133.42-3.06-35.34,1.36-70,2.61-104.76,3.65S389.32,299,353.34,299l-12.26,0a171.33,171.33,0,0,0-36.78-3.58c3.06-4.5-9.19-13.5,15.31-11.7v-3.6c-24.5-4.5-33.68-17.1-9.18-20.7,27.53-3.6,64.22,0,97.75-2.18,24.39-1.15,48.71-2.51,73.07-1.43,33.54,1.71,69.9-.84,103.45.26,3,0,6.65-.27,10.43-.65s7.74-.84,11.51-1.3c7.54-.89,14.34-1.47,17.49-.42,4.46.85,4.83,2.74,4.36,4.94-20,1.59-39.86,3.12-59.6,4-24.25.55-48.51.63-72.77-.35,23.76,1.68,48.11,1.44,72.77.35,19.72-.42,39.43-1.29,59.15-2.19-.54,1.9-1,3.87.32,5.52l9.12-.91c12.64,3.25,10.31,9.82,4.63,14.91C640.64,281.07,639,282.28,637.12,283.5Z"/><path class="cls-5" d="M668.08,316.38l-2.3.09-2.22,0c-6.77.22-12.88.16-18.54.45-2.82.14-5.5.38-8.07.73-1.29.17-2.51.4-3.74.63l-3.66.89a94.92,94.92,0,0,0-15.31,6c-5.33,2.54-10.92,5.54-17,8.55-4.34,2-8.87,4.24-13.64,6.49a157.43,157.43,0,0,1-15.19,6.26,148.87,148.87,0,0,1-30.92,6.71A172.32,172.32,0,0,0,555.12,351a108.66,108.66,0,0,0,18.1-5c11.92-4.43,22.23-10.55,31.95-15.66a152.11,152.11,0,0,1,14.2-6.77,62.5,62.5,0,0,1,13.45-3.87A84.12,84.12,0,0,1,647,319c2.56,0,5.25.12,8.06.19s5.74.13,8.79.12a37.93,37.93,0,0,1-15.62,5.45c-3.36.12-6.42.29-9.17.58l-2,.24-1.88.3c-1.25.27-2.46.49-3.73.82a84.47,84.47,0,0,0-16.12,6.42l-1.71-3.14a256.49,256.49,0,0,1-25.87,15.18,119.31,119.31,0,0,1-15.5,6.36,117.38,117.38,0,0,1-16.35,3.92c-10.75,1.81-21,2.39-30.82,3.29a262,262,0,0,0-29.37,4.16c1.46.35.68,1.16.44,1.76l-.28,0,.28,0c-.22.53,0,.91,2.46.69-2.48.22-2.68-.16-2.46-.69,9.8-1.1,19.42-2.07,29-3s19.84-1.76,30.51-3.81a129,129,0,0,0,16.26-4.15,146.69,146.69,0,0,0,15.6-6.32c9.71-4.62,18.39-9.66,26.48-13.62-3.09,1.57-6.35,3.39-9.64,5.21s-6.76,3.78-10.42,5.72-7.42,3.85-11.41,5.67c-2,.89-4,1.8-6.2,2.61-1.07.4-2.12.83-3.2,1.22s-2.17.76-3.26,1.1a152,152,0,0,1-25.42,5.64c-8.19,1.17-16,1.86-23.46,2.59-30.05,2.93-60.27,6.08-91.45,8.88l-10.63.95a130.14,130.14,0,0,0-32.24-.72c2.26-4.72-9.18-12.73,12.26-12.84-.09-.9-.25-2.69-.33-3.59-21.68-2.57-30.78-14.41-9.83-19.9,23.61-5.73,55.85-5,84.93-9.43,10.6-1.4,21.2-2.8,31.83-3.87,5.3-.53,10.65-1,16-1.31s10.33-.52,15.2-.69a93.73,93.73,0,0,0,19.06-2.3l2.21-.56,2.15-.63,2.16-.73c.72-.23,1.44-.49,2.18-.8l2.22-.87,2.26-1c1.5-.62,3.07-1.42,4.62-2.14,6.27-3.05,12.9-6.74,20.12-10.29s15.08-6.94,23.64-9c3.05-.85,6.74-2,10.67-3s7.91-1.75,11.54-2.3c7.31-1.07,13-1.47,15.63-.43,3.67.9,4,2.76,3.77,4.95-8.18.88-17.15,1.07-26.75,2.76-2.39.41-4.84,1-7.22,1.62s-4.7,1.42-7,2.18c-4.54,1.65-8.87,3.56-13,5.56-10.28,4.74-19.59,10.1-28.68,14.22a92.46,92.46,0,0,1-13.38,5.06,83.1,83.1,0,0,1-13.64,2.61,74.64,74.64,0,0,0,13.56-2.19,84.72,84.72,0,0,0,13.41-4.94c9.11-4.13,18.39-9.7,28.73-14.76a136,136,0,0,1,13.11-5.2c2.31-.69,4.59-1.45,7-2a71.73,71.73,0,0,1,7.13-1.39c9.48-1.39,18.3-1.27,26.5-1.79-.37,1.89-.75,3.87.49,5.51,0,0,1.31-.15,2.93-.38.81-.11,1.7-.25,2.54-.4s1.65-.28,2.28-.41c5.51,1.19,8.34,3,9.16,5.62a6.56,6.56,0,0,1-.31,4.24,13,13,0,0,1-1.16,2.29,20.83,20.83,0,0,1-1.7,2.22c-.69.64-1.42,1.29-2.2,2S669,315.72,668.08,316.38Z"/><path class="cls-5" d="M819.41,336.24l-3,.69c-1,.21-2,.37-3,.55a185.3,185.3,0,0,1-26.31,3.23c-8.55.48-16.9.58-25.15.64s-16.3.08-24.48.32-16.59.68-25.23,1.13a308.44,308.44,0,0,0-38,4c-12.92,2.06-25.81,4.61-37.9,6.86,28.8-4.53,58.1-9.25,87.08-10.89q10.86-.63,21.61-.62c7.16,0,14.47.26,21.95.44,14.93.33,30.6.55,47-2.39a51.48,51.48,0,0,1-22.41,8.12c-10.71.81-20.73.74-30.28.71-4.74,0-9.41-.07-13.89,0s-8.93.12-13.39.34c-.06-.91-.18-2.68-.23-3.57-25.37,3-50.19,5.53-75.27,9-12.53,1.73-25.1,3.7-37.76,6.1s-25.37,5.21-38.12,8.81c1.94.12,1,1.05.71,1.69l-.37.08.37-.08c-.25.57,0,.92,3.27.3-3.23.62-3.52.27-3.27-.3q19.06-4,37.72-7.54c12.46-2.38,24.76-4.61,37-6.6,24.52-3.94,48.95-6.92,73.88-7.77a539.86,539.86,0,0,0-58,6.26c-19.31,3-38.67,6.8-58.24,10.63-39.14,7.67-78.33,15.56-118.38,24.31l-13.64,3a195.63,195.63,0,0,0-41.58,6.17c1.14-2.61-2.22-5.24-2.43-7.85s2.76-5.26,16.66-7.68l-.84-3.5c-14.23,1.1-24.7-.61-28.32-4s-.35-8.41,13.1-13.6c15.17-5.6,33.44-9.82,52.61-13.74s39.27-7.55,58.22-12.2c13.82-3.18,27.64-6.29,41.5-9s27.73-5.18,41.89-6.89c19.49-2.22,39.92-5.3,60.66-7.38,10.37-1.05,20.82-1.83,31.21-2.13a304,304,0,0,1,30.53.59,179,179,0,0,0,24.64-1.31l3-.33,2.83-.35,5.12-.6c1.59-.14,3-.31,4.2-.34.61,0,1.18,0,1.7,0a9.32,9.32,0,0,1,1.39.14c4.59.32,5.26,2,5.13,4.28-10.28,2.48-21.2,3.47-32.43,3.85-5.61.2-11.3.28-17,.35s-11.62.19-17.47.39c-14.34.23-28.64,1.13-42.87,2.3s-28.38,2.72-42.48,4.27c13.85-1.16,27.89-2.53,42.11-3.78s28.65-2.29,43.24-2.79c5.84-.09,11.67-.1,17.39,0s11.36.12,16.93.07a172,172,0,0,0,32.42-2.79c-.3,2-.63,4,1.12,5.42l3.75-1c1-.27,2.16-.67,3.23-1s2.1-.68,2.9-1a34.38,34.38,0,0,1,4.77,0,17.12,17.12,0,0,1,3.52.44,5.5,5.5,0,0,1,3.84,2.6,5.68,5.68,0,0,1,0,4.4,15,15,0,0,1-1.2,2.66A18,18,0,0,1,825,331,64.55,64.55,0,0,1,819.41,336.24Z"/><path class="cls-5" d="M858.47,343.44c-1.35.71-2.94,1.66-4.75,2.74l-1.62,1-1.76,1-1.93,1.05c-.67.34-1.35.7-2,1a62,62,0,0,1-8,3.11,100.16,100.16,0,0,1-14.9,3.2c-2.33.35-4.51.62-6.74.9s-4.44.58-6.66.84c-4.44.54-8.88,1-13.33,1.49-17.78,1.88-35.67,3.29-54,5.36a174.18,174.18,0,0,0-19.63,2.9,170.71,170.71,0,0,0-19.64,5.25c-13,4.28-26,9.86-38.39,14.85,14.88-5.54,29.49-11.29,44.18-15.43s29.86-6.61,45.46-8.33,31.52-2.66,47.58-3.92c4-.31,8-.66,12.08-1s8-.7,12.4-1.31a84.27,84.27,0,0,0,14.09-3,57.69,57.69,0,0,0,7.58-2.95c1.29-.61,2.53-1.26,3.67-1.89l1.63-.92,1.5-.87a33.6,33.6,0,0,1-4.62,4.81A45.18,45.18,0,0,1,844,358a50.75,50.75,0,0,1-14.92,5.69c-3.08.55-5.93.95-8.59,1.28s-5.37.69-8,1q-8,.9-15.7,1.61c-10.34,1-20.41,1.79-30.23,2.78-.11-.9-.32-2.67-.43-3.55l-20.39,3.37c-6.65,1.11-13.15,2.29-19.53,3.59s-12.55,2.8-18.8,4.55-12.51,3.77-18.85,5.95c-12.68,4.38-25.58,9.45-39,14.51-6.72,2.53-13.6,5.05-20.71,7.43s-14.31,4.6-21.56,6.73c2.2,0,1.11,1,.8,1.67l-.42.09.42-.09c-.29.56,0,1,3.74.09-3.71.86-4,.47-3.74-.09,7.27-1.69,14.49-3.61,21.61-5.81s14-4.64,20.64-7.15c13.33-5,25.93-10.29,38.26-14.86,6.17-2.28,12.27-4.39,18.34-6.23s12.05-3.36,18.29-4.61,12.56-2.33,19.1-3.17,13.18-1.58,20-2.19c-10.59,1.1-20.9,2.4-30.83,4.24-5,.95-9.86,1.95-14.62,3.2s-9.48,2.63-14.26,4.17c-19.1,6.28-38.51,15.29-59.82,23.05-5.31,2-10.82,3.77-16.39,5.48s-11.22,3.17-16.86,4.48c-11.27,2.63-22.57,4.59-33.81,6.16S555.3,424,544.2,425.05,522.12,427,511,427.93l-15.17,1.28a260.67,260.67,0,0,0-45.83.23c3.41-4.8-12.52-12.49,18-13.25-.07-.89-.22-2.69-.3-3.58-30.74-1.94-43.18-13.54-13.12-19.68,16.93-3.22,36.85-4.9,57.73-6.42,10.44-.78,21.17-1.48,31.66-2.39s20.83-2.11,30.67-3.93A340.2,340.2,0,0,0,616,370.67c13.2-3.95,26.74-9.13,41.21-14,9.95-3.28,20.37-7,31.32-10.45,5.47-1.73,11.12-3.33,16.85-4.82s11.53-2.71,17.27-3.73c11.48-2.1,22.85-3.49,33.89-4.41s21.79-1.45,32.16-1.78c7.52-.45,17.61-2.19,26.55-3.94,4.44-.85,8.1-1.69,10.83-2.37a25.69,25.69,0,0,1,6-1.12,7.42,7.42,0,0,1,4,.36,3.66,3.66,0,0,1,1.71,2.45,31.22,31.22,0,0,1-6.49,3.28,52.74,52.74,0,0,1-7.63,2.17c-2.73.59-5.63,1.08-8.65,1.54s-6,.91-9.05,1.3c-12.1,1.64-24.38,2.81-36.71,4-15.18,1.28-30.6,2.67-46.18,5.35-7.77,1.34-15.63,3-23.35,5s-15.23,4.31-22.63,6.68c7.3-2.15,14.75-4.29,22.38-6.22s15.47-3.57,23.23-4.94c15.57-2.71,31.12-4.32,46.55-5.88,12.33-1,24.54-1.92,36.57-3.24,3-.32,6-.68,9-1.06s5.91-.78,8.68-1.28a60.92,60.92,0,0,0,7.85-1.9c1.23-.4,2.4-.86,3.53-1.35a32.57,32.57,0,0,0,3.31-1.71c.38,1.95.66,4,2.81,4.77,0,0,1.53-1,3.43-2.38s4.26-3.11,6-4.17a17.72,17.72,0,0,1,5.27-.83,8.14,8.14,0,0,1,3.58.8,4.42,4.42,0,0,1,1.87,1.67,4.24,4.24,0,0,1,.61,2,17,17,0,0,1-.43,4.11c-.24,1.34-.43,2.74-.75,4.12A36.61,36.61,0,0,1,858.47,343.44Z"/><path class="cls-5" d="M783.92,417.54l-2.94.52c-17.78,3.85-34.4,10.72-53.94,15.21-13.82,2.62-28.76,8.19-42.2,12,16.13-3.75,32.43-8.49,48.64-13s32.37-8.81,48.42-11.56a20.41,20.41,0,0,1-9.54,7.64l-15.58,4.47-15.35,4.52c-.29-.86-.86-2.54-1.14-3.39-13.81,6.07-28,9.44-42.18,12.7s-28.28,6.5-42.25,12.43c1.15.19.72,1.06.65,1.68l-.2.06.2-.06c-.07.55.15.9,2,.42-1.81.48-2,.13-2-.42,28.42-8.27,55.15-15.3,83.76-23.07-22,6.56-43.6,13.1-65.42,19.36s-43.93,12.11-67,17L600,475.69a79,79,0,0,0-24.31,1.09c1.13-4.8-8.31-12.17,7.61-13.34-.17-.89-.51-2.65-.69-3.54-16.44-1.47-24.27-12.84-9.67-19.23,8.25-3.38,18.21-5.39,28.69-7.42,5.25-1,10.59-2.07,15.93-3.22s10.6-2.58,15.67-4.28c14.87-4.56,29.57-9.45,45-12,21.27-3.32,43.21-11.23,64.58-15,7.68-1.72,19.53-9,24.13-7.8,3.07.21,3.86,2,4.21,4.11-12.16,4.24-24.26,8.53-36.41,12.23-15.05,4.06-30.2,7.76-45.58,10.44,15.25-1.93,30.42-5.8,45.58-10.44,12.26-3.28,24.43-6.91,36.64-10.47.22,1.88.47,3.83,1.83,5.22l5.52-2.11c9,1.38,9.46,8,7.35,13.57C785.45,414.75,784.75,416.12,783.92,417.54Z"/><path class="cls-5" d="M157.31,354.2l3.22.45,3.23.33c2.49.18,5,.45,7.49.53l7.55.25c5.06,0,10.14,0,15.27-.29,10.25-.48,20.63-1.45,31.21-2.81,21.15-2.64,43-6.53,66.61-9.36l25.69-2.69c4.4-.39,8.83-.89,13.31-1.21l6.73-.55,6.77-.43a297.49,297.49,0,0,1,53.53,1.08A271.48,271.48,0,0,0,367.36,337c-10.22-.2-20.43.1-30.6.7s-20.27,1.7-30.31,2.91-20,2.68-29.8,4.12c-19.65,2.89-39,5.77-57.9,7.41s-37.36,2-54.78.05q2.67-.77,5.55-1.41c1.94-.47,4-.94,6-1.32,1.05-.19,2.12-.36,3.21-.52s2.21-.36,3.35-.51c2.28-.32,4.64-.5,7.11-.67,23.83-.72,48-4.2,72.45-7.94.15.9.45,2.64.6,3.52,16.95-3.55,34-6.56,51.37-8.52a375.93,375.93,0,0,1,52.51-2.33c2.2,0,4.42.19,6.64.28s4.42.2,6.64.38l6.66.58c1.11.1,2.22.17,3.33.3l3.33.42,6.68.82,6.68,1.1,3.34.54c1.12.2,2.23.46,3.34.68L419.5,339a227.65,227.65,0,0,1,26.58,7.81l3.31,1.18c.55.2,1.11.38,1.65.6l1.63.69,6.54,2.73,1.64.68c.62.28,1.27.59,2,.94a37.3,37.3,0,0,1,4.69,2.76,27.51,27.51,0,0,1,5.53,5,24.52,24.52,0,0,1,4.68,8.67l4.68,16-17,4.56-3.1.83c2.66-.06,1.3,1,.89,1.65l-.51.11.51-.11c-.32.51-.09.82,2.83.32l20.1-3.48-5.63-20.6a26,26,0,0,0-2.14-5.43,26,26,0,0,1,2.14,5.43l5.63,20.6L466,393.39c-2.92.5-3.15.19-2.83-.32l2.63-.58,19-4.13-5.21-18.8a26.58,26.58,0,0,0-4.84-9.38,30.06,30.06,0,0,0-5.79-5.49,39.82,39.82,0,0,0-4.85-3c-.73-.4-1.39-.73-2-1l-1.64-.75c-4.33-1.92-8.6-4-13-5.52-2.2-.81-4.37-1.7-6.58-2.43l-6.64-2.09c-1.11-.34-2.21-.71-3.32-1l-3.34-.86-6.68-1.7a270.09,270.09,0,0,0-53.26-6.08,452,452,0,0,0-52.07,2.51c-17.21,1.79-34.16,4.3-51.07,6.73,16.69-2.56,33.59-5.26,50.84-7.26a442.25,442.25,0,0,1,52.5-3.09A262.4,262.4,0,0,1,421.65,335l6.72,1.7,3.36.86,3.34,1,6.66,2.09c2.21.78,4.39,1.64,6.59,2.46,4.42,1.55,8.66,3.65,13,5.57l.81.36.86.41,1,.51,1.07.57a41.75,41.75,0,0,1,5,3.17,31.54,31.54,0,0,1,6,5.76,28,28,0,0,1,5,9.74l5.5,20.06-20.32,4.59c-40.79,9.22-81.8,11.67-121.88,15.37l-9.2.87-9.12,1a207.65,207.65,0,0,0-54.1,5c1.68-2.73-2.34-5.22-2.38-7.87,0-1.33,1-2.74,4.32-4.07a47.46,47.46,0,0,1,6.89-2.07c.74-.17,1.53-.35,2.37-.51l2.67-.45c1.89-.29,4-.58,6.28-.87l-.6-3.55a198,198,0,0,1-23.84-.07c-6.31-.39-10.91-1.43-13.21-3a3.09,3.09,0,0,1-1.58-2.76c.07-1,.8-2.22,2.31-3.49,3-2.49,8.93-5.66,18.43-8.42,21.41-6.27,46.9-9.18,72.88-11.26s52.66-3.53,77.17-7.86l8.51-1.45c2.82-.5,5.6-1.09,8.41-1.63l4.19-.82c1.4-.28,2.76-.62,4.14-.93l8.27-1.86-2.29,23.29-.06,0-.2.09s-.22.1-.33.17l-.46.28a16.55,16.55,0,0,0-2.88,2.56,46.65,46.65,0,0,0-4.53,5.85l-.7,1.06-.34.54-.17.26h0l0,0-.28-.14c-.28-.13-.59-.3-1.31-.61l-1.88-.83L437.81,384c-5.06-2.13-10.25-4-15.58-5.69a228.25,228.25,0,0,0-33.3-7.44,217.13,217.13,0,0,0-36.52-2.36c-12.6.16-25.51,1.16-38.5,2.59-26,2.89-52.66,7.5-78.93,9.56-9.52,1-22.58,3.17-34.71,4.45s-23.27,1.56-28.21.27a17.65,17.65,0,0,1-4.11-1.07,5.38,5.38,0,0,1-2.07-1.31c-.8-.92-.59-1.93,0-3a355.2,355.2,0,0,0,47.32-2.36c15.55-1.69,30.85-4,45.94-6.36,9.26-1.3,18.51-2.65,27.69-3.87s18.33-2.38,27.42-3.22a348,348,0,0,1,54.08-1.4,305,305,0,0,0-53.59.88c-18.2,1.72-36.78,4.71-55.6,7.61-15.09,2.12-30.31,4.16-45.7,5.55-3.84.4-7.72.6-11.57.91s-7.75.4-11.62.6-7.77.21-11.67.19l-5.84-.06-2.92,0-2.92-.14c1.16-1.82,2.23-3.72.37-5.52l-5.32-.08c-1.48,0-3.1-.08-4.65-.17l-4.21-.23c-1.17-.34-2.24-.67-3.21-1s-1.86-.77-2.66-1.15a21.35,21.35,0,0,1-3.79-2.26c-1.9-1.48-2.6-2.9-2.45-4.24.32-2.68,4-5.05,8.59-6.88,1.16-.33,2.39-.74,3.69-1.18S155.88,354.64,157.31,354.2Z"/><path class="cls-5" d="M374.21,316.83h-3.59c-10.93.25-21.4.57-31.92.94s-21.06.73-31.9,1a98.62,98.62,0,0,0-23.28,2.74c-7.64,1.74-15.08,4.54-22.25,7.23,4.31-1.41,8.6-2.74,12.86-3.91,2.14-.57,4.26-1.12,6.39-1.59s4.27-.94,6.46-1.31a202.41,202.41,0,0,1,26.9-2.85c18.43-.83,37.4.19,57.05.47A26.72,26.72,0,0,1,357.51,325c-6.46.2-12.75.31-18.82.41s-12,.22-17.77.46c-.07-.91-.2-2.68-.27-3.57-8.15,1.3-15.95,2.12-23.47,3.07-3.76.47-7.43,1-11.07,1.58-1.79.34-3.6.63-5.39,1s-3.59.77-5.39,1.21a169,169,0,0,0-22.24,7.24c-7.57,3-15.33,6.64-23.41,10.64,1.35,0,.89,1,.84,1.61l-.24.09.24-.09c-.06.56.21.88,2.31.14-2.1.74-2.37.42-2.31-.14,8.3-3.12,16.1-6.47,23.52-9.43s14.57-5.66,21.52-7.66c3.47-1,6.88-1.82,10.36-2.51,1.72-.39,3.53-.62,5.3-.92s3.6-.51,5.42-.74c7.31-.86,15-1.26,23-1.46-6.22.28-12.26.69-18.07,1.39-3,.3-5.76.78-8.61,1.21s-5.59,1-8.27,1.7c-10.7,2.44-21.61,6.86-33.41,11.7-5.89,2.42-12,5-18.46,7.34s-12.7,4.49-18.9,6.55c-12.36,4.09-24.28,7.9-35.15,12.5l-3.68,1.59-3.53,1.68a39.38,39.38,0,0,0-20.95,9c-.74-2.36-4-4-5.47-6.12a3.24,3.24,0,0,1-.14-3.82,10.3,10.3,0,0,1,2.22-2.51c.26-.24.55-.48.86-.72l1.06-.69c.74-.46,1.59-.95,2.54-1.46l-2-3a61.61,61.61,0,0,1-11.85,3c-3.44.55-6.47.43-8.6-.45a5.58,5.58,0,0,1-2.41-1.95,4.42,4.42,0,0,1-.64-1.39,5.53,5.53,0,0,1-.1-1.75c.23-2.51,1.82-6.14,5.62-10.09a65.27,65.27,0,0,1,7.14-6.3c1.29-1,2.65-1.88,4-2.82s2.8-1.86,4.25-2.66,2.94-1.65,4.45-2.47,3-1.49,4.58-2.23c.77-.36,1.55-.74,2.33-1.08l2.35-1c1.58-.65,3.18-1.35,4.76-1.94,6.38-2.46,12.81-4.54,19.09-6.62s12.34-4.08,18.05-6.38l6.17-2.35,6-2.34c4-1.56,7.78-3.11,11.79-4.74a219.79,219.79,0,0,1,25.93-9.06c6.45-1.66,13.27-3.47,20.41-4.94s14.23-2.52,21.23-3.29a220,220,0,0,1,39.84-.55c4.49.14,10.58-.69,15.94-1.41s10.13-1.24,12.4-.18c3.21.91,3.59,2.75,3.43,4.94-14.16,1.64-28.69,2.23-43.47,2.88-9.09.14-18.33.39-27.77,1.14l-7.12.66-7.17.91L273.1,299c-2.41.45-4.81.92-7.18,1.43,2.35-.41,4.72-.81,7.11-1.18l7.16-1,7.13-.83,7.09-.66c9.43-.78,18.75-1.22,28-1.62,14.78-.21,29.14-.16,43.26-1.1-.26,1.89-.51,3.85.6,5.5l6.62-1c4.76,1.41,7,3.74,7.56,6.38s-.65,5.62-2.62,8.27C376.77,314.31,375.57,315.6,374.21,316.83Z"/><path class="cls-5" d="M327.52,252h-2c-12,.64-23.13,4.49-36.22,5.7-9.26.3-19.21,3.35-28.15,5,10.74-1.18,21.62-3.23,32.47-5s21.72-3.17,32.62-3.07c-1.43,2.65-3.42,5-6.28,5.74q-10.6,1.67-20.85,3.55c-.21-.88-.64-2.61-.85-3.47-9.23,3.62-18.77,4.63-28.24,5.6s-18.87,2-28.2,5.78c.77.36.47,1.16.42,1.75l-.14,0,.14,0c-.05.53.09.91,1.3.71-1.21.2-1.35-.18-1.3-.71,19-3.94,36.83-6.64,56.09-9.51-14.82,2.75-29.25,5.76-43.85,8.6s-29.34,5.43-44.68,7.13l-5.23.58a35.15,35.15,0,0,0-16-2.13c.92-4.59-5-13.12,5.46-12.2l-.33-3.59c-10.66-3.6-15.19-15.88-5.6-20.29,5.41-2.26,11.87-2.91,18.67-3.45,3.4-.26,6.87-.56,10.34-.95a70.4,70.4,0,0,0,10.2-2c9.69-2.32,19.25-4.88,29.32-5,13.92.08,28.27-4,42.43-4,5.08-.36,12.78-5.29,15.92-3.38,2.08.75,2.68,2.57,3,4.7-8,2-16,4-24.07,5.59a245.61,245.61,0,0,1-30.07,2.74c10,.52,20.06-.77,30.07-2.74,8.1-1.14,16.17-2.55,24.3-3.86a12.79,12.79,0,0,0,1.44,5.34l3.66-1.07c6.17,2.9,6.79,9.28,5.55,14.32C328.46,249.58,328,250.77,327.52,252Z"/><path class="cls-5" d="M394.67,196.44l-3.1-.23c-18.93-.73-37.5,1.89-58.4,1.71-14.66-.68-31.18,1.35-45.72,2.13,34.58-.22,70.63-3.81,104.33-1.09a22.08,22.08,0,0,1-11.62,5c-11.3.29-22.43.7-33.46,1.22-.07-.9-.22-2.67-.29-3.56-15.48,2.63-30.67,2.63-45.81,2.65s-30.24.13-45.78,3c1.13.43.5,1.19.3,1.78h0c-.19.52-.05.91,1.9.82-1.95.09-2.09-.3-1.9-.82,30.73-2.13,59.5-3,90.32-3.81-23.88,1.14-47.29,2.67-70.86,4.07s-47.32,2.62-71.82,3l-8.35.12A83.6,83.6,0,0,0,169.34,209c2.08-4.5-6.22-13.49,10.38-11.71l0-3.6c-16.61-4.48-22.64-17.08-6.24-20.69,18.41-3.62,43-.36,65.52-2.93,16.36-1.43,32.66-3.09,49.11-2.22,22.67,1.43,47.14-1.25,69.94.28,8.27.17,22.31-3.94,26.67-1.67,3.07,1,3.39,2.86,3.16,5-13.51,1.08-26.95,2.28-40.29,3-16.39.38-32.8.48-49.21-.32,16.1,1.5,32.56,1.24,49.21.32,13.34-.29,26.68-.83,40-1.24-.29,1.88-.56,3.83.43,5.51l6.17-.65c8.71,3.6,7.36,10.07,3.71,15C397,194.12,395.88,195.27,394.67,196.44Z"/><path class="cls-5" d="M333.78,138.72l-1.91-.52c-11.72-2.47-23.37-1.17-36.43-2.27-9.18-1.31-19.52.3-28.58,1,21.59-.11,44.28-1.84,65,4-2,2.16-4.48,3.93-7.36,4-7-.66-13.84-1-20.66-1.08,0-.91-.12-2.68-.16-3.57-9.62,1.79-19,1.25-28.45,1s-18.87-.08-28.3,3.14c.73.41.4,1.18.32,1.77l-.14,0,.14,0c-.08.52,0,.91,1.23.79-1.19.12-1.31-.27-1.23-.79,18.87-2.76,36.76-3.22,55.81-2.38a378.47,378.47,0,0,0-43.75,2.39c-14.51,1.51-29,3.56-44,5.53l-5.11.69c-2.6-1-6-1.49-6.82-1.85-.29-.07-.54-.14-.68-.19s-.16-.06-.16-.1,0-.07-.14-.06a1.28,1.28,0,0,0-.88.35,35,35,0,0,0-2.09-3.32c-.81-1.16-1.7-2.29-2.36-3.39a4.21,4.21,0,0,1-.82-3.23c.27-1,1.39-1.93,3.43-2-.23-.87-.7-2.61-.94-3.48-2.65-.48-5.43-.87-7.87-1.14a14.5,14.5,0,0,1-6.27-1.7,9.86,9.86,0,0,1-2.27-2.24,6,6,0,0,1-.76-1.35,7.42,7.42,0,0,1-.38-1.76,8.2,8.2,0,0,1,.91-4.3,14.15,14.15,0,0,1,4.12-4.78c.57-.4,1.15-.82,1.77-1.18l.93-.56,1.1-.55a37.45,37.45,0,0,1,4.21-1.72c1.33-.45,2.6-.8,3.79-1.08l1.69-.37,1.25-.26c3.38-.66,6.95-1.12,10.62-1.47,7.33-.75,15-1.18,22.25-2.9,10.55-2.06,21.18-4,32-3,14.88,1.49,30.87-.31,45.68,2.72,2.68.35,6.33-.22,9.65-.55s6.33-.38,7.7.93c1.94,1.26,2.05,3.18,1.8,5.32-8.72-.13-17.41,0-26,0-10.58-.53-21.19-1-31.87-2,10.5,1.71,21.12,2,31.87,2,8.61.44,17.2.93,25.78,1.7a12.62,12.62,0,0,0,0,5.54l3.95-.07c5.34,4.4,4.07,10.73,1.56,15.27C335.31,136.64,334.59,137.68,333.78,138.72Z"/><path class="cls-5" d="M877.44,128.73c-1.83-.11-3.65-.26-5.48-.31-16.88-.44-34,1.12-51.76,3.11-8.87,1-17.94,2.09-27.26,3.06s-18.89,1.83-28.81,2.29l-21.5.65c-7.31.2-14.71.36-22.09.49-14.74.25-29.35.37-42.87.44,16,.34,32.42.75,49.07.61q12.48-.09,25.13-.7c8.41-.46,16.79-1.05,25.07-1.78,16.57-1.44,32.87-3.22,48.76-4.39a371,371,0,0,1,46.28-1,81.56,81.56,0,0,1-9.65,3.35c-1.76.49-3.59.91-5.51,1.27a60.72,60.72,0,0,1-6,.87c-20.22,1.19-40.64,3.65-61.38,5.82-.11-.9-.33-2.66-.44-3.54a339.36,339.36,0,0,1-44,4.64c-14.69.57-29.05.22-43.23-.18s-28.13-.83-42.25-.65-28.34.87-42.76,2.43c2.07.41.87,1.19.46,1.78l-.41,0,.41,0c-.37.52-.12.91,3.48.8-3.6.11-3.85-.28-3.48-.8,14.21-.64,28.19-1.07,42.07-1.24s27.57-.11,41.54,0,28.12.22,42.6-.19,29.17-1.51,43.68-2.84c-11.26,1.16-22.62,2.23-34.12,2.91s-22.85,1-34.05,1.12-22.26.11-33.19.15-21.75.16-32.65.38c-43.55.86-87.33,3.2-132.37,6.46l-15.36,1.17a239.4,239.4,0,0,0-46.38.57c1.7-2.44-1.52-5.5-1.3-8.12s3.9-4.83,19.43-5.38c-.08-.9-.25-2.69-.33-3.59-15.67-.81-26.75-3.93-30.1-7.79s1.07-8.38,16.51-11.71c17.37-3.5,37.9-5.27,59.42-6.56s44-2.13,65.55-3.94c15.65-1.11,31.33-2.07,47-2.54s31.39-.4,47.06.44c21.5,1.3,43.46,1.94,64.9,1.16s43.24-3.15,64.74-4.18c7.78-.58,18.44-2.42,28.28-3.72,4.91-.68,9.64-1.16,13.62-1.4a35.8,35.8,0,0,1,9.33.41c5.86.94,6.17,2.84,5.43,5-26.12,1.23-51.59,5-76.46,7.78-15.29,1.45-30.47,2.67-45.5,2.94s-30.28-.26-45.63-1.11c15,1.19,30.1,1.87,45.2,1.59s30.39-1.67,45.93-3.42c24.86-2.37,50.13-5.42,75.74-6-.82,1.89-1.58,3.86.07,5.54l4.38-.26,7.32-.29c7.89,2,10.75,4.78,10.75,7.46s-2.85,5.44-6.53,7.74C881.88,126.48,879.77,127.62,877.44,128.73Z"/><path class="cls-5" d="M844.63,150.8l-3,.66c-9.16,2.37-18.24,5.47-27.9,8.23s-20.05,5.1-31.35,5.47l-46.3-.36,12.67.73c4.25.24,8.6.47,13.07.62s9,.21,13.71.08,9.48-.49,14.18-1.08c18.86-2.3,36.35-7.61,52.91-11.11a21.77,21.77,0,0,1-10,8.14,295.5,295.5,0,0,1-34.91,8.93c-.19-.89-.56-2.62-.74-3.49a88.38,88.38,0,0,1-12.63,2.7,98.3,98.3,0,0,1-12.63.91c-8.21.08-15.9-.64-23.22-1.23-14.64-1.17-29.33-2-44.49.36,1.08.48.45,1.21.23,1.8h0c-.2.51-.08.9,1.81.89-1.89,0-2-.38-1.81-.89,14.9-.53,29.32-.4,43.72.19,7.2.29,14.77.76,22.9.8,4,0,8.25-.08,12.57-.36s8.65-.76,12.9-1.44c-1.66.27-3.3.56-5,.77s-3.34.47-5,.63c-3.37.4-6.77.64-10.05.79-6.57.3-12.85.24-18.83.13s-11.6-.26-17.32-.33-11.39-.07-17.09-.05c-22.82.11-45.78.86-69.42,1.66l-8.06.29a72.35,72.35,0,0,0-24.37-2.51c1.8-4.58-6.8-13.19,9.56-12.18,0-.9-.13-2.7-.17-3.6-16.48-3.7-23.44-15.91-7.14-20.38,18.39-4.54,43.28-1.79,65.93-3.87,16.5-1.12,33-2,49.54,0,5.64.75,11.55,1.33,17.18,1.78s11.07.72,16.24.73a144.31,144.31,0,0,0,15-.75c5-.49,10.15-1.17,15.34-1.82,3.72-.65,8.54-2.77,13-4.69s8.56-3.6,10.91-3.1c3.13.11,4,1.82,4.39,4-12.32,4.78-24.45,9.25-36.55,11.71-3.73.65-7.46,1.06-11.15,1.34a102.63,102.63,0,0,1-11.11.16c-7.54-.26-15.32-1.19-23.47-2.25A168.29,168.29,0,0,0,772,142.5a89,89,0,0,0,11.21-.29,98.41,98.41,0,0,0,11.26-1.67c12.17-2,24.42-5.86,36.83-10,.26,1.88.57,3.83,2,5.16l5.63-2.36c9.26,1,9.86,7.55,7.85,13.3C846.15,147.93,845.45,149.34,844.63,150.8Z"/><path class="cls-5" d="M844.13,175.25l-2.56-.15C826,174.84,811.05,178,794,178.4c-12-.23-25.35,2.31-37.16,3.59,28.19-1.41,57.37-6,85.13-4.15a15.93,15.93,0,0,1-9.14,5.3c-9.23.58-18.3,1.29-27.28,2.13-.12-.9-.36-2.65-.49-3.54-12.46,3.07-24.86,3.54-37.21,4.06s-24.67,1.15-37.16,4.59c1,.39.48,1.18.35,1.77l-.18,0,.18,0c-.12.53,0,.91,1.6.76-1.58.15-1.72-.23-1.6-.76,24.94-3.26,48.35-5.1,73.49-6.78-19.44,1.84-38.45,4.12-57.6,6.34s-38.44,4.36-58.39,5.75l-6.8.47a56.37,56.37,0,0,0-20.63-2.37c1.44-4.58-5.8-13.19,7.81-12.15-.06-.9-.16-2.7-.22-3.59-13.76-3.74-19.33-16-6.22-20.39,14.75-4.43,34.93-2.2,53-5.62,13.2-2.05,26.33-4.28,39.76-4,18.52.66,38.25-2.76,56.93-1.85,6.75-.06,17.89-4.5,21.61-2.36,2.57.9,3,2.77,2.94,4.94-10.93,1.41-21.81,3-32.62,4.06-13.34.84-26.69,1.44-40.09,1.18,13.19,1,26.58.2,40.09-1.18,10.84-.67,21.68-1.56,32.55-2.3-.1,1.88-.18,3.83.76,5.48l5-.8c7.37,3.37,6.76,9.85,4.13,14.83C845.83,172.89,845,174.06,844.13,175.25Z"/><path class="cls-5" d="M598.13,232.92l-2.6-.16c-15.82-.36-31.17,2.34-48.55,1.87-12.17-.85-25.86.76-37.93,1,14.31.52,29,0,43.57-.42s29.07-.73,43.25.3a16.36,16.36,0,0,1-9.45,5.2l-28,1.34c-.08-.9-.25-2.67-.33-3.56-12.87,2.55-25.57,2.27-38.18,1.83s-25.14-1-38.2,1c.92.49.35,1.22.15,1.8h0c-.18.5-.08.9,1.55.93-1.63,0-1.73-.43-1.55-.93,25.72-.44,49.71-.44,75.51-1-20,1-39.55,1.92-59.28,2.3s-39.64.07-60.07-1.63l-6.93-.58c-6.48-3.31-12.4-4.7-17.57-4.41.54-2.29-.64-5.6-.64-8.19a3.36,3.36,0,0,1,1.57-3.13c1.18-.69,3.2-1,6.43-.38,0-.9.11-2.7.15-3.59a37,37,0,0,1-8.54-4.61,17.11,17.11,0,0,1-5.23-5.64,7.38,7.38,0,0,1-.67-3,5,5,0,0,1,.21-1.49,5.43,5.43,0,0,1,.74-1.46c1.32-1.92,4.1-3.65,8.28-4.59a59.66,59.66,0,0,1,14.19-.92c2.32.1,4.58.28,6.76.47s4.41.41,6.66.65c4.49.51,9.1.91,13.71,1.25a110.94,110.94,0,0,0,13.76.09c13.18-.42,26.25-1.25,39.42.23,9.06,1.16,18.55,1.11,28.05,1.08s19-.26,28.24.51c3.34.11,7.81-.94,11.89-1.65s7.76-1.3,9.59-.19c2.55.95,2.93,2.81,2.88,5-10.92,1.27-21.81,2.51-32.62,3.19a331.57,331.57,0,0,1-39.87-1.25c13,2,26.37,2.07,39.87,1.25,10.83-.26,21.66-.83,32.53-1.44-.13,1.88-.23,3.84.69,5.49l5-.77c7.38,3.41,6.78,9.88,4.06,14.86C599.89,230.56,599.07,231.73,598.13,232.92Z"/><path class="cls-5" d="M523.56,225.86l-4.61.41c-14.05,1.26-27.69,1.92-41.44,1.87s-27.58-.71-41.82-2c-5-.6-10.12-1-15.32-1.28s-10.49-.31-15.79-.33c-10.61.09-21.22.53-31.19.87l17.78,0,8.91.11c3,0,5.95.07,8.92.17,11.86.22,23.78,1,35.91,1.7s24.4,1.56,36.79,2,25,.4,37.66-.4a44.1,44.1,0,0,1-7.85,4.07,37.32,37.32,0,0,1-9.67,2.32c-17,1-33.08.28-48.53-.43l.08-3.57c-10.94.43-21.48.08-31.72-.35l-15.29-.63-15.31-.51c-20.49-.49-41.18-.17-62.67,2.89,1.55.42.67,1.19.37,1.78l-.31,0,.31,0c-.27.52-.08.91,2.61.81-2.69.1-2.88-.29-2.61-.81,21.23-1.24,41.56-2.21,61.66-2.3,5,0,10,.06,15,.12s10,.28,15,.53c10,.49,20.35,1.26,31.08,2-8.34-.41-16.49-.86-24.48-1.17s-15.82-.43-23.73-.45c-15.8,0-31.73.64-47.84,1.39-32.23,1.48-65.31,3.63-100.19,2.21l-11.91-.65c-11.75-3.57-23.49-5.55-35.35-7.45,1.81-2,.11-5.68.88-8.18.38-1.25,1.36-2.21,3.65-2.52a21.33,21.33,0,0,1,4.53,0,60.82,60.82,0,0,1,7.1,1c.1-.9.3-2.68.41-3.58a64.33,64.33,0,0,1-7.6-2.93,42.91,42.91,0,0,1-5.87-3.53c-3.31-2.4-5.38-4.85-6.06-7.06s0-4.17,2.28-5.61,6-2.34,11.48-2.4c12.35-.2,26.51,1.07,41.67,1.84s31.19,1.14,46.66-.18c22.49-1.47,45.34-3.59,68.61-2.5,8,.45,16.2.68,24.54,1,4.16.1,8.37.29,12.58.46l6.33.25,6.32.33c16.76,1,32.9,2.37,48,4,5.51.35,13-.3,19.65-1.11s12.48-1.6,15.29-.71c3.93.63,4.47,2.48,4.27,4.68-17.6,2.91-35.83,3.22-54.11,2.53-11.22-.68-22.53-1.67-34.05-2.56-5.77-.46-11.56-.79-17.35-1.2l-17.35-1c5.66.53,11.34,1,17.07,1.41s11.5.83,17.27,1.28c11.53.86,23,1.69,34.41,2.12,18.23,1.12,36.24,1.46,53.86-.73-.31,1.91-.62,3.91.79,5.47l.91-.16c.56-.11,1.36-.21,2.22-.41l5.18-1.11c6,.84,8.88,2.82,9.62,5.43s-.69,5.76-3.15,8.73A58.91,58.91,0,0,1,523.56,225.86Z"/><path class="cls-5" d="M637.19,251l-3.2-.31a79.12,79.12,0,0,0-15.62,1.12c-5.42.86-11,2.1-16.91,3.4s-12,2.65-18.6,3.65l-5,.67c-1.69.18-3.38.35-5.08.47q-5.1.36-10.22.34c-9.57-.3-19.44-.59-29.07-.64l-28.29.07c10.67.47,21.45.8,32.32,1.13a331.35,331.35,0,0,0,34-.3c5.86-.42,11.82-1.23,17.44-2.13s11.09-1.93,16.34-2.81c10.46-1.79,20.3-3,28.89-2.22a28.64,28.64,0,0,1-11.95,5.76c-12.28,1.65-25.94,5.36-41.31,7.51-.15-.9-.44-2.65-.58-3.53A131.17,131.17,0,0,1,549.46,266c-9.87-.11-19-.75-28.37-1.23-18.65-1-37.29-1.76-56.6.39,1.37.49.56,1.21.27,1.79h0c-.26.51-.11.91,2.29.92-2.4,0-2.55-.41-2.29-.92,19-.34,37.34-.24,55.69.17l27.92.79a233,233,0,0,0,30.8-1c-16.87,2.11-32.47,1.58-46.9,1.47s-29-.16-43.58-.12c-29.08.08-58.35.36-88.52.21l-10.28-.05A120.12,120.12,0,0,0,359,264.66c2.59-4.49-7.65-13.54,12.92-11.64,0-.9,0-2.7,0-3.6-20.56-4.6-28.21-17.24-7.61-20.74,23.16-3.48,54,.28,82.31-1.37,20.59-.8,41.17-1.59,61.73.31,7.07.71,14.3,1.2,21.62,1.59s14.63.72,21.58.84,13.67,0,20-.37c3.17-.2,6.39-.52,9.69-.86l10.15-1.16c5-.74,11.73-3,18.33-4.72a77.21,77.21,0,0,1,9.34-2,17.7,17.7,0,0,1,6.7.08c4.33.78,4.63,2.68,4.26,4.88A193,193,0,0,0,604,230.6c-8.3,2-16.29,3.94-24,5.22A127.82,127.82,0,0,1,565.7,237c-4.79.15-9.65.07-14.59-.15s-9.93-.56-15-1-10.21-.83-15.32-1.3c10,1.25,20.2,2.27,30.07,2.72,4.94.21,9.85.25,14.69,0a114.75,114.75,0,0,0,14.4-1.53c7.76-1.06,15.78-2.79,24-4.42a192.23,192.23,0,0,1,25.79-3.68c-.45,1.9-.8,3.87.44,5.52l.85-.11c.53-.07,1.26-.14,2.09-.19,1.63-.13,3.6-.3,4.92-.3a12.61,12.61,0,0,1,5.5,3.63,5.78,5.78,0,0,1,1.37,4c-.15,2.69-2,5.35-4.14,7.56C639.7,248.78,638.49,249.82,637.19,251Z"/><path class="cls-5" d="M736.55,289l-4.07-.36A189.71,189.71,0,0,0,695.89,290a165.88,165.88,0,0,0-18,3.39,156,156,0,0,0-17.81,5.43c-2.1.73-4.17,1.57-6.29,2.47s-4.35,2.12-6.8,3.36-5.11,2.57-8,3.78a62.13,62.13,0,0,1-9.19,2.95,102.11,102.11,0,0,1-17.45,2.37c-2.72.18-5.3.3-7.85.4l-7.56.3,8.85,0c2.94,0,6-.05,9.13-.18a79,79,0,0,0,20.4-3.22,69.64,69.64,0,0,0,9.92-4.1c3-1.48,5.64-2.94,8.1-4.19,1.21-.64,2.4-1.17,3.6-1.72s2.38-1.13,3.62-1.6l3.7-1.45c1.22-.49,2.51-.86,3.77-1.29,2.49-.89,5.12-1.52,7.68-2.24s5.21-1.24,7.89-1.67a141.37,141.37,0,0,1,16.12-2c5.42-.4,10.92-.44,16.38-.37s11,.44,16.44.94a38.16,38.16,0,0,1-15.24,4.84c-14.23.36-27.71,1.8-40,5.09-.26-.87-.78-2.56-1-3.42L673,299.14l-1.61.63-1.56.67-3.13,1.3-3,1.39c-2.06.86-4,1.93-5.95,2.85s-4,2.12-6.41,3.37-5.06,2.63-8.09,3.92a62.49,62.49,0,0,1-9.79,3.27A86.87,86.87,0,0,1,615,318.72c-5.64.14-10.59,0-15.82.07s-10.34,0-15.52.11c-10.36.18-20.74.62-31.27,1.79,1.5.48.61,1.21.3,1.8h0c-.28.51-.1.9,2.52.89-2.62,0-2.8-.38-2.52-.89,10.37-.27,20.6-.43,30.82-.62l15.31-.3,7.66-.19c2.52-.05,5.15-.13,7.93-.26a99.56,99.56,0,0,0,18.33-2.34c1.67-.4,3.34-.86,5-1.41s3.39-1.17,5-1.82c3.15-1.29,5.9-2.67,8.38-3.93s4.65-2.42,6.57-3.35c1-.46,1.93-.85,2.9-1.29s1.9-.9,2.92-1.25c2-.73,4-1.57,6.06-2.18l3.1-1,3.2-.86A100.91,100.91,0,0,0,657.16,309c-3.09,1.6-6.8,3.77-11.42,6a68.86,68.86,0,0,1-15.59,5.27,103.73,103.73,0,0,1-14.54,1.91c-2.24.15-4.39.25-6.44.34l-6.07.22L597,323l-6,.17c-4,.12-8,.21-12,.29-32.07.68-63.8.54-95.75,2-2.72.13-8.17.36-10.87.57a105.7,105.7,0,0,0-32.65-.67c1.07-2.4-1.37-5.5-1.35-8.11s2.55-4.82,13.69-5c-.08-.89-.25-2.69-.34-3.58-11.31-1.18-19.56-4.3-22.29-8.18a4.46,4.46,0,0,1,.54-6c1.82-2,5.43-4,11.12-5.52,12.85-3.28,28.11-4.38,43.9-4.79S517.11,284,532.6,283c22.55-1,44.74-1.83,66.67-.74l5.68.27c1.93.09,3.8.13,5.58.16a79.32,79.32,0,0,0,9.58-.33,36.38,36.38,0,0,0,3.88-.61,26,26,0,0,0,3.39-1,84.16,84.16,0,0,0,9.15-4.32c1.83-.94,4-2,6.1-3s4.24-2,6.4-2.77,4.3-1.71,6.48-2.37,4.32-1.46,6.5-2a130.25,130.25,0,0,1,25.62-4.43c6-.65,14.06-2.2,21.36-3.13s13.79-1.33,16.75-.18c4.18,1.07,4.43,3,3.93,5.14-18.64.71-37.69,2.28-56.5,7l-4.34,1-4.33,1.2-2.17.6-2.15.7-4.31,1.41c-2.84,1.11-5.72,2.07-8.51,3.36-1.4.62-2.82,1.22-4.21,1.85l-4,1.92c-2.53,1.23-4.85,2.34-7,3.2-1.07.43-2.09.79-3.07,1.09s-1.92.51-2.92.72a62.2,62.2,0,0,1-13.67.84,58.75,58.75,0,0,0,13.59-.44c1-.19,2-.39,2.95-.67s2-.62,3.07-1c2.15-.83,4.46-1.92,7-3.16L643,281.4c1.37-.66,2.8-1.26,4.2-1.9,2.78-1.31,5.66-2.34,8.5-3.47,1.43-.54,2.89-1,4.33-1.5l2.16-.74c.72-.24,1.45-.44,2.18-.66l4.37-1.3,4.39-1.12c18.89-4.26,37.68-5.16,56-5.23-.57,1.88-1.1,3.82.1,5.54l8.42-.42c11.41,4,8.83,10.43,3.47,15.16C739.79,286.73,738.26,287.84,736.55,289Z"/><path class="cls-5" d="M512.63,310.15l-2.08-.44c-12.73-1.9-25.22,0-39.32-.41-9.94-.81-21,1.34-30.73,2.63,23.23-1.39,47.59-4.29,70.17.55-2.11,2.24-4.66,4.12-7.76,4.34-7.52-.33-14.94-.29-22.28,0l-.33-3.56c-10.28,2.32-20.43,2.24-30.59,2.58s-20.3,1-30.31,4.82c.81.36.48,1.15.41,1.75l-.14,0,.14,0c-.06.52.09.9,1.37.71-1.28.19-1.43-.19-1.37-.71,20.19-3.92,39.43-5.4,60-5.56a416.37,416.37,0,0,0-47,4.84C417.25,324,401.7,327,385.68,330l-5.46,1a36.09,36.09,0,0,0-17.08-.25c.46-4.69-6.9-12.37,4.52-12.88-.17-.88-.53-2.65-.71-3.53-11.94-2.14-18.9-13.56-8.32-19.42,12-6.16,29.75-5.82,45.12-10.09,11.26-2.74,22.62-5.27,34.31-5,16.09.65,33.22-2.08,49.3.23,5.79.41,15.65-3,18.7-.48,2.14,1.17,2.34,3.08,2.16,5.23-9.4.28-18.75.88-28,1.33-11.42,0-22.86.07-34.4-.31,11.37,1.09,22.82.86,34.4.31,9.29,0,18.57,0,27.84.41a11.55,11.55,0,0,0,.25,5.52l4.25-.26c5.93,4.15,4.83,10.53,2.31,15.19C514.19,308,513.45,309.06,512.63,310.15Z"/><path class="cls-5" d="M652.25,164.85c-1.81.18-3.62.37-5.41.62q-6.2.93-12.3,2.46c-2,.51-4,1.06-6.17,1.69l-6.71,2c-2.35.69-4.82,1.38-7.42,2s-5.36,1.15-8,1.54a127.69,127.69,0,0,1-15.51,1.24c-5,.12-9.82.06-14.52,0l-14.33-.16c-9.65-.14-19.52-.38-29.66-.88-14.2-1-29.43-1.47-44.72-2.2s-30.61-1.63-44.89-3.32c33.78,4.75,68.59,5.79,102.69,6.55l25.46.6,12.7.36c4.32.12,8.82.18,13.5,0A106.56,106.56,0,0,0,611.46,176c5-.88,9.55-2.11,13.67-3.2,2.07-.56,4-1.08,5.88-1.54s3.64-.86,5.46-1.24c3.63-.74,7.26-1.35,10.88-1.8-2.62,1.71-5.46,3.43-8.57,5.07a75.3,75.3,0,0,1-10.7,4.68c-2.67.81-5.6,1.7-8.75,2.53-1.59.42-3.23.82-4.94,1.2s-3.47.69-5.17,1A130.41,130.41,0,0,1,590,184.1c-3,0-5.84,0-8.59,0l-8.07-.12-16-.22c0-.9,0-2.68,0-3.57-15.17.77-30.18.82-45.13.28s-29.81-1.63-44.68-3.19c-7.44-.74-14.88-1.67-22.33-2.62s-14.93-2.06-22.36-3.17c-14.87-2.22-29.67-4.48-44.65-5.9,2,.83.65,1.34.12,1.84l-.42-.07.42.07c-.48.43-.31.86,3.38,1.5-3.69-.64-3.86-1.07-3.38-1.5,14.57,2.27,29.11,4.77,43.8,6.95,7.34,1.1,14.75,2.08,22.14,3s14.76,1.6,22.11,2.21c29.43,2.54,58.69,3.45,88.55,4.18-23.18-.3-46.37-.65-69.66-1.86-11.65-.61-23.31-1.44-35-2.59s-23.44-2.68-34.93-4.44c-23-3.53-45.33-7.72-67.42-10.66s-43.88-4.42-65.29-2.71c-3.65.26-11,1.12-14.72,1.69-15.24-.49-30.72,2.16-46.05,6.08,1.36-2.66-2.36-5.2-2.52-7.83-.08-1.31.73-2.65,3.55-4s7.61-2.84,15.5-4.16l-.8-3.51c-16.16,1.38-28,.22-32-3.08-2-1.63-2-3.74.35-6.18s7.16-5.21,14.95-8.07a220.64,220.64,0,0,1,29.39-8,229.33,229.33,0,0,1,34.42-4.31c3-.11,6-.28,9.07-.32h9.1l9.08.3c3,.11,6,.36,9,.52,12,.81,23.78,2.06,35.17,3.22,16.53,1.91,32.7,4.37,48.44,7l46.31,7.77c21.06,3.63,43.62,5.17,66.39,6.1,11.38.47,22.83.8,34.21,1.22q8.53.3,17,.71c5.6.27,11.35.63,16.59,1a75.5,75.5,0,0,0,12.4-.58,61.78,61.78,0,0,0,6.14-1.14c1.93-.47,3.88-1.07,5.95-1.76,4.12-1.38,8.6-3.1,12.81-4.33a35.39,35.39,0,0,1,10-1.8c6.37-.37,7,1.52,6.63,3.79q-5.07,1.2-10.08,2.65c-3.32,1-6.68,2.07-9.8,3.12s-6.11,2.05-9,2.86a68.52,68.52,0,0,1-8.45,1.82,130.34,130.34,0,0,1-18.27,1.09l-19.54-.07c-31.94-.76-63.74-1.94-94.84-6.08,30.38,4.78,62.33,5.85,94.84,6.08l19.46.43a138.74,138.74,0,0,0,18.23-.64,68,68,0,0,0,8.51-1.57c2.87-.71,5.85-1.62,9-2.57s6.37-2,9.65-2.84,6.58-1.69,9.89-2.4c-.51,2-.92,4.12,1.08,5.44,0,0,2-.51,4.45-1.07s5.47-1.18,7.48-1.55c8.43.77,11.69,3.22,12,5.87s-2.2,5.7-5.52,8.53Z"/><path class="cls-5" d="M725.72,190.72c-1.23.51-2.49.95-3.71,1.43a198.65,198.65,0,0,1-34.58,10.69,148.16,148.16,0,0,1-36.58,2.53c-8.61-.69-17.45-.92-26.43-.9s-17.91.19-26.27.08c9.9.55,19.93.84,30,1.11l15.16.33c5.09.09,10.28.16,15.55.1s10.64-.26,16.07-.69,11-1.13,16.41-2.1a191.09,191.09,0,0,0,31.88-8.67,29.34,29.34,0,0,1-12.91,10.19,155.22,155.22,0,0,1-21.81,5.61A171.51,171.51,0,0,1,667,212.9c-.08-.91-.23-2.67-.3-3.56A159.68,159.68,0,0,1,639,210.83c-8.76-.17-17.44-.65-26.12-1.15-17.35-1-34.66-1.94-52.68-.21,1.27.51.49,1.22.21,1.8h0c-.26.5-.12.9,2.11,1-2.23-.06-2.37-.46-2.11-1,17.69.07,34.78.35,51.89.76l25.72.7c8.6.25,17.65.56,27.33.25-7.5.37-14.7.38-21.62.35l-20.42-.12-40.62-.27c-27.12-.29-54.41-.87-82.5-2.47l-9.58-.57a110.36,110.36,0,0,0-28.44-5.56c2.71-4.33-6.12-14,12.75-10.81l.25-3.59c-18.69-5.85-24.65-19-5.61-21.15,10.7-1,23-.21,35.92.74s26.41,2,39.37,1.6c18.85-.19,37.65-.66,56.44,1.34,12.92,1.48,26.48,1.94,40,2.4s25.83.67,37.24.14c4.15-.36,9.58-2.28,14.35-4.25s9-3.88,11.42-3.61c3.26-.18,4.29,1.41,4.85,3.54a116.36,116.36,0,0,1-20.06,7.73,108.64,108.64,0,0,1-21.05,3.69,248.13,248.13,0,0,1-27.3-.43c-9.39-.56-18.78-1.26-28.15-2.21,9.16,1.29,18.47,2.12,27.87,2.66a199.82,199.82,0,0,0,27.58,0,116.57,116.57,0,0,0,21.13-2.9,119.65,119.65,0,0,0,20.37-6.79c.38,1.87.77,3.83,2.4,5,0,0,1-.51,2.31-1.23s2.8-1.56,3.81-2.15c5.15-.47,8.17.67,9.68,2.94s1.44,5.55.38,8.85C727.48,187.31,726.7,189,725.72,190.72Z"/><path class="cls-5" d="M757.71,231l-2.24.7c-6.63,2.4-12.88,4.73-19.31,6.66a90.54,90.54,0,0,1-19.9,3.92c-9.74.14-20.14,2.3-29.22,3.19a258.08,258.08,0,0,0,33.8-3.14,261.09,261.09,0,0,0,36-8.23,15.09,15.09,0,0,1-2.35,4.45,10.9,10.9,0,0,1-4,3.29,163.16,163.16,0,0,1-23.8,6.61c-.22-.88-.67-2.6-.89-3.46a60.55,60.55,0,0,1-15.26,3.71,143.1,143.1,0,0,1-14.88.88c-9.68.19-19.07.36-28.76,3.31.73.43.37,1.19.27,1.78l-.14,0,.14,0c-.1.52,0,.91,1.24.82-1.23.09-1.34-.3-1.24-.82,4.83-.55,9.58-1.07,14.29-1.5s9.37-.83,14.15-1.21,9.66-.79,14.67-1.29,10.18-1.13,15.54-2.05c-8.26,1.66-16.2,2.78-23.88,3.72-3.85.48-7.61.89-11.35,1.31l-11.11,1.18c-14.83,1.53-29.81,2.85-45.29,3.24l-5.28.12a35.24,35.24,0,0,0-15.82-3.49c1.3-4.51-3.83-13.49,6.5-11.7,0-.9,0-2.7,0-3.6-10.35-4.49-13.84-17.14-3.86-20.69,5.62-1.8,12.14-1.87,19-1.84s14,.17,20.83-1.12c9.9-1.48,19.7-3.17,29.77-2.39a112.4,112.4,0,0,0,20.54-.31c6.7-.59,13-1.44,19.34-1.64a14.57,14.57,0,0,0,3.57-1.15c1.2-.6,2.46-1.26,3.61-1.91,2.32-1.29,4.31-2.39,5.9-1.7,1.92.38,3,2,3.85,3.94A83.35,83.35,0,0,1,721,218.41a126.93,126.93,0,0,1-29,1.23,81.73,81.73,0,0,0,29-1.23,95,95,0,0,0,21.82-6.17,13.87,13.87,0,0,0,2.71,4.82l1.21-.72c.66-.41,1.48-.87,2-1.23a10.67,10.67,0,0,1,7.31,4.28,13.29,13.29,0,0,1,2.29,7.69C758.15,228.27,758,229.64,757.71,231Z"/><path class="cls-5" d="M781.34,201.17l-2.69,0c-16.29.41-31.87,3.8-49.54,4.57-12.43,0-26.17,2.81-38.22,4.58,14.41-1.28,29.18-3,44-4.4a387.23,387.23,0,0,1,44.25-2,17,17,0,0,1-9.51,5.66l-14.38,1.38-14.09,1.46c-.13-.89-.4-2.65-.54-3.53-25.81,6.65-51.1,2.59-75.9,11.25,1,.33.57,1.14.48,1.74l-.18,0,.18,0c-.09.53.08.91,1.66.65-1.58.26-1.75-.12-1.66-.65,24.88-5,48.85-7.17,74.9-9.34-20.17,2.21-39.62,4.79-58.89,8s-38.33,6.85-57.47,11.37l-6.53,1.55a46.7,46.7,0,0,0-10.42-.15,36.06,36.06,0,0,0-5,.79q-2.44.54-4.86,1.26c.35-4.79-8.89-11.45,4.88-13.65l-1-3.46c-7.28-.22-13.2-2.89-15.75-6.48s-1.66-8.08,4.9-11.91a63.44,63.44,0,0,1,12.38-5c4.49-1.45,9.28-2.45,14.18-3.51,2.45-.55,4.93-1,7.42-1.46s5-.95,7.49-1.47c5-.94,9.93-2,14.71-3.35,14-3.46,28-6.47,42.17-6.73,19.58-.13,40.11-3.79,59.36-3.28,3.46-.14,8.09-1.3,12.26-2.3s8-1.65,9.9-.65c2.65.79,3.12,2.65,3.15,4.83-11.2,1.82-22.39,3.62-33.58,4.92-13.8,1.12-27.67,1.92-41.72,2.11a267.21,267.21,0,0,0,41.72-2.11c11.23-.87,22.39-2,33.56-3.16-.06,1.88-.09,3.84.92,5.45l5.13-1c7.74,3.05,7.38,9.55,4.76,14.65C783.06,198.73,782.26,199.94,781.34,201.17Z"/><path class="cls-5" d="M822.53,248.5c-1,.65-2.08,1.13-3.1,1.67A60.66,60.66,0,0,1,806.36,255c-4,1-7.81,1.67-11.36,2.2-1.79.28-3.49.5-5.14.73l-5.05.65c-3.4.42-6.88.77-10.48,1-10.18.06-21.27,3-31.11,4.85,11.82-1.35,23.83-3.31,35.84-4.69,3-.34,6-.65,9-.91l9.39-.72a95,95,0,0,0,10.86-1.46,53.39,53.39,0,0,0,12.64-4.09,19.2,19.2,0,0,1-10.14,9.41c-1.41.42-2.72.72-4,1s-2.56.55-3.76.75c-2.45.44-4.73.76-6.86,1l-5.92.69-5.65.71c-.17-.9-.49-2.64-.65-3.52-20.61,6.56-41.62,3.13-61.91,11.47.84.33.53,1.13.48,1.73l-.15,0,.15,0c-.05.53.11.9,1.42.66-1.31.24-1.47-.13-1.42-.66a489.25,489.25,0,0,1,61.22-9.57c-32.5,4.31-63.21,11.78-96.21,17.89l-5.63,1a39.37,39.37,0,0,0-17.54-.41c.59-4.68-6.68-12.49,4.91-12.81-.17-.88-.49-2.65-.66-3.54-12.08-2.34-18.59-13.94-8-19.57,12-5.88,29.54-5.47,44.69-10.11,11.09-3,22.19-5.94,33.77-6.25,8-.11,16.15-1.16,24.34-2.11,4.1-.47,8.2-.92,12.29-1.2q3.06-.21,6.11-.29c1,0,2,0,3,0s2,0,3,.08a24.71,24.71,0,0,0,8.29-2.18c2.39-1,3.81-1.68,5-.86,1.5.63,2.65,2.13,3.65,4a35.39,35.39,0,0,1-10.19,3.55c-2,.44-4.14.8-6.36,1.15l-6.88,1c-11.37,1.08-22.76,2.05-34.27,2.36,11.38.4,22.79-.74,34.27-2.36l6.91-.67c2.24-.21,4.38-.44,6.43-.73a40.43,40.43,0,0,0,10.86-2.78c.79,1.67,1.51,3.49,2.89,4.72l.36-.23a8.19,8.19,0,0,0,.86-.6,19.19,19.19,0,0,0,1.89-1.52,20.59,20.59,0,0,1,4.7.34,9.62,9.62,0,0,1,3.8,1.67,8.17,8.17,0,0,1,2.53,3.21,11.1,11.1,0,0,1,.93,4.47c-.08.74-.19,1.54-.34,2.38S822.8,247.6,822.53,248.5Z"/><path class="cls-5" d="M821.86,269.18l-2,.46c-3,.89-6,1.83-8.84,2.93s-5.76,2.25-8.67,3.44-5.85,2.36-8.9,3.47a95.44,95.44,0,0,1-9.48,3c-9.4,1.88-19.15,6.42-28.17,9.2,10.9-2.56,21.78-6.24,32.59-9.92s21.61-7.26,32.73-9.64c-.94,2.94-2.54,5.66-5.32,7.06l-5.26,2-5.23,1.92c-3.44,1.34-6.91,2.55-10.32,3.84-.36-.83-1.06-2.46-1.42-3.28-8.89,5.28-18.6,7.89-28.24,10.19s-19.23,4.5-28.59,9.19c.82.28.59,1.1.58,1.71l-.14,0,.14,0c0,.53.17.89,1.42.56-1.25.33-1.42,0-1.42-.56l28.45-8.56c9.38-2.83,18.75-5.78,28.44-8.95-14.81,5.49-29.37,10.64-44.25,15.23-7.43,2.32-15,4.35-22.63,6.27s-15.48,3.48-23.48,4.71l-5.45.84a40.15,40.15,0,0,0-16.8-1.63c.88-4.61-5.26-13,5.45-12.32-.11-.9-.32-2.69-.42-3.58-11-3.37-15.51-15.6-6.08-20.18A42.17,42.17,0,0,1,689.2,274c3.1-.56,6.36-1.06,9.72-1.46s6.77-.92,10.18-1.49a66,66,0,0,0,10-2.64c9.41-3,18.53-6.52,28.42-7.78,1.71-.2,3.44-.44,5.15-.76s3.42-.73,5.13-1.15c3.44-.78,6.83-1.88,10.26-2.86s6.81-2.12,10.25-3a105.83,105.83,0,0,1,10.35-2.46,18.9,18.9,0,0,0,3.94-1.71c1.38-.73,2.78-1.59,4.11-2.41,2.68-1.61,5.19-2.86,6.92-2.25,2.18.3,3.15,2,3.9,4-7.53,3.61-15,7.2-22.74,10.11a181.92,181.92,0,0,1-29.42,7.27c10-.77,19.83-3.6,29.42-7.27,7.85-2.51,15.56-5.48,23.32-8.46a12.66,12.66,0,0,0,2.5,4.93l3.43-1.85c6.72,1.49,8.73,7.57,8.49,12.81C822.33,266.59,822.13,267.86,821.86,269.18Z"/><path class="cls-5" d="M733.34,265.68c-.81.16-1.62.32-2.39.43a96,96,0,0,1-9.53,1.36c-2.87.28-5.47.48-7.87.68a127.16,127.16,0,0,1-15,.72c-7.44-.78-15.55,1.16-22.77,2,8.65-.18,17.45-1.05,26.24-1.47,4.4-.21,8.76-.3,13.2-.13a88.84,88.84,0,0,0,16.72-.59c-1.67,3-4.34,5.61-7.51,6.33-3.9.47-7.2.6-9.95.72s-5.59.3-8.36.49c-.13-.9-.38-2.65-.51-3.54-7.56,2.47-15.23,2.36-22.84,2.39s-15.18.2-22.73,3.23c.6.42.34,1.18.29,1.77l-.11,0,.11,0c-.06.52,0,.91,1,.81-1,.1-1.08-.29-1-.81a348.64,348.64,0,0,1,45.16-3.8c-23.93,1.75-46.65,6.05-71.17,7.92l-4.17.3a22.92,22.92,0,0,0-12.76-2.76c.76-4.56-3.9-13.28,4.45-12-.06-.9-.17-2.7-.23-3.59-8.53-4-12.19-16.39-4.36-20.47,8.8-4.13,21.1-1.47,32-4.29,7.93-1.65,15.81-3.4,24-2.55,11.32,1.38,23.18-1.13,34.7.75a19.36,19.36,0,0,0,6.56-1.32c1.91-.61,3.14-1,4.11.1,1.19.95,2,2.7,2.59,4.75a49.82,49.82,0,0,1-8,1.59c-1.53.2-3.19.39-4.84.57s-3.3.35-4.94.49a205.06,205.06,0,0,1-24.51-.65c8.12,1.49,16.29,1.36,24.51.65l9.84-.28a66.41,66.41,0,0,0,8.43-.7,19,19,0,0,0,1.89,5.19l1-.39c.54-.24,1.18-.53,1.6-.74a14.46,14.46,0,0,1,6.47,5.07,11.68,11.68,0,0,1,1.84,7.83A28.22,28.22,0,0,1,733.34,265.68Z"/><path class="cls-5" d="M727.69,389.07l-4.85,1.13a242.71,242.71,0,0,0-42.31,15.13c-6.74,3.14-13.73,7-21.55,10.67s-16.51,7.27-26.38,9.14A139.72,139.72,0,0,1,612,426.81c-3.35.06-6.64.05-9.87.06l-9.62,0-37.63.57c14.19.29,28.57.43,43,.57,7.16.05,14.73.19,22.79-.47a95.62,95.62,0,0,0,12.32-1.8,93.82,93.82,0,0,0,12-3.44,214,214,0,0,0,21.27-9.21c3.3-1.58,6.48-3.12,9.6-4.56s6.15-2.74,9.27-4a262.7,262.7,0,0,1,38.49-11.74,56.64,56.64,0,0,1-16.53,10.26c-8.27,2.84-16.27,5.9-23.84,9.38s-15.63,7.84-24.84,12c-.39-.82-1.15-2.42-1.54-3.22-3.11,1.67-6.37,3.26-9.79,4.7a92.09,92.09,0,0,1-10.8,3.74A83.72,83.72,0,0,1,625,432c-3.71.49-7.3.74-10.78.88s-6.8.13-10,.09l-9.41-.19-18.62-.51c-24.85-.67-49.57-1.12-75.3,1.32,1.84.47.75,1.21.37,1.79h0c-.34.51-.12.91,3.09.89-3.21,0-3.43-.38-3.09-.89,25.35-.62,49.66-.84,74.12-.74l18.33.13,9.23.11c3.15,0,6.41,0,9.83,0a115.89,115.89,0,0,0,22.06-2.33,117.74,117.74,0,0,0,21.54-7.06,124.43,124.43,0,0,1-16.42,6l-2.21.61-2.27.54c-1.49.37-3,.68-4.54,1-3,.55-6,.94-8.86,1.22-5.76.56-11.18.7-16.28.76l-14.67.07c-19.34.11-38.63.35-58,.62s-38.73.72-58.71.63a593.52,593.52,0,0,1-61.23-3c-3.55-.36-10.65-1.25-14.19-1.76-13.8-4.65-27.54-8.16-41.35-11.42,2.23-1.79.42-5.67,1.46-8.09s4.76-3.24,18.13.36c.17-.89.52-2.65.69-3.54-13.06-4.85-21.06-11.39-22.44-16-.74-2.34.25-4.2,3-5.33s7.26-1.49,13.84-1c14.75,1.42,31.55,4.28,49.38,6.24A370.56,370.56,0,0,0,477,395.79c13.42-.32,27-.89,40.65-1.12s27.36-.12,41,.66c9.4.59,19,.95,28.73,1.21l14.62.33c4.79.09,9.28.12,13.43-.08A69.19,69.19,0,0,0,627,395.42,77.45,77.45,0,0,0,638.24,392c7.87-2.92,16.29-7.05,25.48-10.8,6.64-3,15.48-7.57,23.64-11.15s15.6-6.34,19.34-6.29c5.15-.5,6,1.26,6,3.52-10.75,3.7-21.5,7.7-32.09,12.32-5.28,2.3-10.58,4.79-15.69,7.4s-10,5.18-14.77,7.53a111,111,0,0,1-17.45,6.7,62.19,62.19,0,0,1-8.5,1.73,85.45,85.45,0,0,1-8.95.64c-6.15.14-12.78-.21-19.63-.51s-13.59-.65-20.39-1q10,.82,20.07,1.4c3.36.19,6.76.37,10,.49s6.47.19,9.58.12a82.69,82.69,0,0,0,9.05-.65,62.06,62.06,0,0,0,8.6-1.8,108.63,108.63,0,0,0,17.59-7.09c4.82-2.24,9.74-4.72,14.86-7.18s10.43-4.81,15.69-6.94c10.57-4.3,21.25-7.93,31.92-11.27-.15,2-.23,4.07,1.65,5.28l9.68-3.44c14.42-.26,13.22,6.84,8.28,13.32C730.87,385.77,729.38,387.39,727.69,389.07Z"/><path class="cls-6" d="M822.13,279.6q-.35,5.7-.68,11.4a24.57,24.57,0,0,0-5.71,8.83,23.13,23.13,0,0,0-1.34,6.83,22.58,22.58,0,0,0,.07,2.3,20.78,20.78,0,0,0,.64,3.64,79.92,79.92,0,0,0,2.55,7.66c1.89,5.26,1.75,5.75,2.43,6,2.07.69,5.15-3,9.87-8.51,2.39-2.78,1.89-2.64,3.06-3.74,1-.92,10.48-4.68,12.94-6.13,2.24-1.32,4.86-4.36,5.66-12.3A12.32,12.32,0,0,1,850,292a13.18,13.18,0,0,1-.34-4.59c.22-3,.42-6.46.68-10.56Z"/><path class="cls-7" d="M819.91,276.87a54.49,54.49,0,0,0,31.15-3.06,50.4,50.4,0,0,0-1.34,10.56c-.16,8,1.65,14.26.83,14.49-.63.18-1.23-3.65-4.76-7a19.46,19.46,0,0,0-8.68-4.42c-3-.86-6.34-1.9-10.39-.86a15.28,15.28,0,0,0-5.16,2.48,15.39,15.39,0,0,0-.45-10A14,14,0,0,0,819.91,276.87Z"/><path class="cls-8" d="M785,169.64c-13.74,19.34-8.62,44.05-6.81,51.4a7.88,7.88,0,0,0-4.42,2.05c-3.36,3.29-2,9.18-1.36,12.25a24.44,24.44,0,0,0,4.76,9.87l4.09-1a22.5,22.5,0,0,0,.34,7.83,25.13,25.13,0,0,0,6.81,11.92c1.71,1.85,5.36,5.42,14.63,9.87,6.51,3.12,12.8,6.14,21.79,7.49a64.27,64.27,0,0,0,31.32-3.41c8.8-3.06,18.22-6.34,24.5-15.78a34.66,34.66,0,0,0,5.46-15.54l6.13-.68A28.38,28.38,0,0,0,898.72,235c1-3.33,2.15-6.83.34-8.85s-5.79-2-9.87,0c2.1-4.44,16-34.87,2-57.53C871.69,136.89,808,137.32,785,169.64Z"/><path class="cls-9" d="M821.45,291a35.26,35.26,0,0,0-6.81,4.09,26.78,26.78,0,0,0-6.47,6.46c-3.67,5.77-2.25,12.67-1.7,15.32,1.84,9,8.81,18.42,17.53,20.77,12.86,3.47,31.26-8,35.74-30a14.16,14.16,0,0,0-2.38-10.55A13.9,13.9,0,0,0,850,292a4.46,4.46,0,0,1,.68,3.41c-.56,1.89-2.79,2.35-6.63,4.08a38.63,38.63,0,0,0-9.37,5.62c-.62.54-1.92,1.73-4.76,5.78-6.21,8.85-7.56,13.92-9.19,13.62-1.09-.2-.85-2.49-2.73-9.36-1.71-6.25-2.48-6.44-2.38-9s1.09-4.75,3.06-9.36C819.77,294.34,820.75,292.36,821.45,291Z"/><path class="cls-10" d="M784.34,477l91.92-.34c1.2,10.68,3,27,5.1,47,7.2,68.53,10.07,106.27,14.3,150.47,3,31.49,7.76,77.18,15,133.45l-30-6.47-5.79-26.22c-4.14-32.87-7.82-60.2-10.55-80-6.07-44-9.23-66.69-14.64-97-4.81-27-9.43-48.95-12.59-63.32l-8.51-3.74c0,4.23,0,10.48,0,18-.16,22.37-.85,39.13-1.37,51.41C825,654,823.83,681,823.49,687.43c-1.39,26.2-3.16,55.14-5.45,86.46q-8,14.13-16,28.26l-20.42-10.21q.81-50.21,1.7-100.43.75-41.87,1.55-83.75c-.69-9.49-1.49-23.73-1.55-41.19,0-9.47.2-6.84.34-24.17.19-22.95-.17-32.74.34-53.78C784.12,483.59,784.25,479.52,784.34,477Z"/><path class="cls-11" d="M785.7,479.77c5.1,11.74,43.58,6.15,53.11,4.76a238.58,238.58,0,0,0,45.28-11.23q-1,7-2.05,14l3.41,13.27c.46,6.16,1.17,15.37,2,26.56,3.07,39.51,4.61,59.26,6.13,75.57,2.26,24.33,2.55,23.26,6.81,66.38,1.31,13.34,2.61,26.56,3.74,39.15,2,21.91,4.34,52.58,6.13,90.55l-5.11,1.71c-.75-10-1.78-23.51-3.06-39.49-1.71-21.3-4-49.84-7.49-86.47-.49-5.16-3.16-30.67-8.51-81.7-1-9.52-2.27-21.52-4.68-37.52-2.45-16.26-5-29.66-6.94-39q-2-6.35-4-12.69l-3.75-1c-8.51-1.65-15.47-2.55-20.08-3.06-11.12-1.23-26-2.1-44.94-4.77-8.24-1.15-13.57-2.14-16.34-6.46-3.57-5.59-1.29-14.3-.68-14.3C785.05,474,784.61,477.26,785.7,479.77Z"/><path class="cls-12" d="M807.83,303.09c-5.58,1.17-10.48,2.32-14.55,3.31-6.86,1.68-8.85,2.65-10.73,4.34s-3.78,4.45-5,10.05c-2.06,9.34.05,15.69,1.7,27a193.47,193.47,0,0,1,1.79,21.7c.36,8,0,11.37-1.28,30.38-1.28,20.06-1.93,30.3-2,40.09-.12,11.51-.25,18.6.77,27.32a151.44,151.44,0,0,0,3.06,17.36,67.55,67.55,0,0,0,12.26,5.87c3.59,1.3,11.27,3.71,35.49,3.57a211.48,211.48,0,0,0,33.44-2.8c8.32-1.38,13.66-2.8,18.13-7.15,3.33-3.25,5.18-7.17,6.89-13.28a96.78,96.78,0,0,0,3.07-31.66c-.49-12.14.35-21.45,2-40.08,3.54-39.08,13.8-56.14,2.81-73a35.24,35.24,0,0,0-5.62-6.63c-3.58-1.69-6.63-3.07-8.93-4.09-5-2.2-9.2-4.06-14.81-6.13-2.74-1-5-1.77-6.64-2.3a28.22,28.22,0,0,1-9.7,7.66c-2.83,1.32-4.56,1.48-8.43,3.58-3.64,2-3.33,2.5-6.38,4.08a23.21,23.21,0,0,1-11.24,3.07,16.13,16.13,0,0,1-8.17-1.79c-5.11-2.86-6.76-8.16-7.4-10.21A21,21,0,0,1,807.83,303.09Z"/><path class="cls-13" d="M763.66,381.21s0-.14.06-.35h0c0-.22,3.5-5.6,3.77-6q4,2.55,7.91,5.11.76-6.26,1.54-12.51,16.59,17.74,33.19,35.48a3.3,3.3,0,0,0,2.81.77c1.59-.57,1.3-3.17,2.8-5.11,1.79-2.29,5.14-2.44,7.15-2.55,6.21-.32,23.22-1.39,46.22-2.55q-.9,4.47-1.79,8.93c-9.43,5.24-37.88,19.4-66.64,9.45C776,403.32,763.64,381.37,763.66,381.21Z"/><path class="cls-14" d="M762.38,381l43.92,25.27a5.78,5.78,0,0,0,4.59,1.28c2.58-.56,4.6-3.44,4.34-6.89h54.64l1,35.49-38.8,8.68-10-.77a4.52,4.52,0,0,1-.51,3.58,4.83,4.83,0,0,1-5.88,1.27l-47-15.32Z"/><path class="cls-15" d="M834.89,428.19l-4.85.51a17.6,17.6,0,0,0-2-3.83,22.24,22.24,0,0,0-5.87-5.36c-5.38-3.73-7.22-3.32-8.94-6.13-1.13-1.84-1.3-3.59-2-3.57s-1.57,1.87-1.53,3.57c0,1.06.37,2.36,3.32,5.88a56,56,0,0,0,4.59,4.85,8.78,8.78,0,0,1-3.83,1.53c-3.56.48-6.37-1.57-8.42-3.07a20.85,20.85,0,0,1-6.9-8.68c-.38-1-1-2.77-2.21-3a2.2,2.2,0,0,0-1.87.86c-1.39,1.68-.25,5.24,1.36,7.57,2.51,3.64,6.3,4.47,6,5.19-.19.54-2.48.57-4.42-.34-2.46-1.15-3.58-3.4-4.85-6a24.36,24.36,0,0,1-1.89-5.17,2.63,2.63,0,0,0-2.2.32c-1.2,1-.38,3.65.17,5.45a15.68,15.68,0,0,0,4,7.15c3.07,3,6.62,3.7,6.47,4.17s-1.86.36-3.58-.34c-4.58-1.89-5.64-7.84-7.23-7.49-.57.12-.83,1-.94,1.36-.77,2.64,2.07,5.54,2.9,6.38,4,4.06,8.81,4.72,8.68,5.2s-2.82.44-5.36-.94c-2.89-1.57-4-4.18-4.77-3.83-.54.23-.55,1.58-.34,2.55.4,1.86,1.8,3.3,4.34,4.85a31.29,31.29,0,0,0,9.53,3.66,45.94,45.94,0,0,0,11,1.45,62.62,62.62,0,0,0,8.68-.51c2.38-.36,3.79-.77,6-.43,2.66.41,3.42,1.38,4.43,1.11C833.86,442.76,835.28,439.71,834.89,428.19Z"/><path class="cls-16" d="M891.32,320.45a326.37,326.37,0,0,0,0,95.23q-14.16,2.67-28.6,5.62-7.12,1.45-14.17,2.95l-16.21,4.45.51,16.09c4,.55,9.73,1.19,16.6,1.53A171.58,171.58,0,0,0,881.36,445c16.26-2.23,21.92-5.49,24.77-7.4a41.35,41.35,0,0,0,7.4-6.38,116.65,116.65,0,0,0,1.53-18.39c0-7-.58-12-2-22.47-3.09-22.2-4.67-33.45-6.38-40.59a231.06,231.06,0,0,0-6.86-23.1c-.33-.39-.68-.77-1.06-1.16A24.1,24.1,0,0,0,891.32,320.45Z"/><path class="cls-11" d="M830,530.49c.67.27-.12,3.62-.27,4.28-1.8,8.11-2.49,41.85-4.5,126.1-1.36,57.4-1.57,64.06-2.38,76.94-1.55,24.66-3.6,44.85-5.11,58.21l-8.17,1.7q2.22-6.63,4.43-13.27c1.06-11.61,2.44-27.86,3.74-47.32,1.58-23.46,2.4-42,3.07-58.56,2.28-56.93,3.79-118.52,4.32-141.26C827,533.8,829.21,530.19,830,530.49Z"/><path class="cls-17" d="M781.28,792.28A84.29,84.29,0,0,0,768,810c-2.51,4.5-3.35,7-2.38,9.19,1.46,3.28,6.35,4.08,10.55,4.77a36.4,36.4,0,0,0,13.28-.34A136.8,136.8,0,0,0,806.81,809,135,135,0,0,0,817.7,796.7a50.45,50.45,0,0,0-36.42-4.42Z"/><path class="cls-17" d="M901.79,795a31.21,31.21,0,0,0-13.28.68,30.09,30.09,0,0,0-10.21,5.11c-.5,1-4.63,9.45-.34,17.7,3,5.81,8.39,8,10.55,8.85.93.38,12.39,4.78,21.11-2a18.84,18.84,0,0,0,5.78-7.83l-3.06-18.73A31.91,31.91,0,0,0,901.79,795Z"/><path class="cls-18" d="M619.06,297.47c-1.71-1.76-3.49-3.74-5.27-6a83.9,83.9,0,0,1-6.64-9.53,38.35,38.35,0,0,0-8.85-7.66,38.81,38.81,0,0,0-8.85-4.09,16.27,16.27,0,0,0-7.83,1.71c-2.19,1.09-5.22,2.29-5.45,4.42-.25,2.29,2.82,4.33,4.26,5.28,6.32,4.19,12.15,2.38,13.44,5.62a3.59,3.59,0,0,1-.51,3.4c-1.66,2.14-6.44,1.75-9.7,0-2.75-1.48-3.51-3.44-4.77-3.06s-2,2.72-1.53,4.59,2,2.54,4.77,4.94a43.2,43.2,0,0,1,4.59,4.59,61,61,0,0,1,6.13.17c4.24.34,7,.56,9.7,1.71,5.53,2.32,6,6.35,8.68,6.29C613.12,309.86,615.85,307.77,619.06,297.47Z"/><path class="cls-19" d="M577.19,278.57c.06-2,3.62-3.36,4.6-3.74a8.57,8.57,0,0,1,5.1-.68c3.4.73,5.55,3.86,6.3,6.3.23.74,0,.46.34,5.78.2,3.47.34,4.53-.17,4.77-.67.32-1.66-1.19-4.08-3.23-1.65-1.39-1.78-1.18-6.13-4.09C577.5,279.91,577.17,279.2,577.19,278.57Z"/><path class="cls-20" d="M585.7,282.32c-5.8-2.76-12-5.46-18.72-8q-4.34-1.65-8.51-3.06a4.26,4.26,0,0,0-3.92,2,4.4,4.4,0,0,0,1.54,5.61l23.65,9.2a4.66,4.66,0,0,0,5.45-1.37A4.84,4.84,0,0,0,585.7,282.32Z"/><path class="cls-21" d="M783.87,309.62c-2.49.76-5.94,1.81-10.08,3-9.72,2.79-22,5.76-38.13,9.53-19.95,4.67-29.93,7-36.43,6.47-11.81-1-17.65-5.13-34.38-12.94a414.25,414.25,0,0,0-46.13-18.21,59.08,59.08,0,0,1-9.7,14.81q28.28,16,57,33,11.6,6.88,23,13.79c11.14.61,20.08.42,25.87.17,18.06-.79,27.48-3.12,48.34-3.58,6-.13,10.88-.06,13.79,0a2.46,2.46,0,0,0,2.6.44,1.74,1.74,0,0,0,.58-.56q-.72-13.63-1.45-27.29a27,27,0,0,1,2.75-14.94A24.73,24.73,0,0,1,783.87,309.62Z"/><path class="cls-22" d="M780.43,221.21c.11-5.8.14-10.44.15-13.47,0-7.83-.1-9.85,1-12.91,1-2.85,2.76-4.94,6.12-9a117.14,117.14,0,0,1,9.88-10.55,40.14,40.14,0,0,0,8,6c1.93,1.1,6.08,3.23,14.81,4.94a90,90,0,0,0,28.76,1,66,66,0,0,0,15.66-3.91,61.72,61.72,0,0,0,6.81-3.24,25.18,25.18,0,0,1,7.83,6.64c3.12,4,4.14,8,5.28,12.6a68.49,68.49,0,0,1,1.7,14.12,99.75,99.75,0,0,1-1.19,18.56h2a7.62,7.62,0,0,1,3.4-5.79A7.28,7.28,0,0,1,898,226c.22-3.27.53-8,.85-13.62.74-12.82,1.1-19.23,1-25a150.44,150.44,0,0,0-2.21-23.66l10.73-11.91-7.49-.34c3.81-1.59,4.5-2.25,4.42-2.56-.16-.61-3.34,0-9-.34a20.38,20.38,0,0,1-5.11-.68,42.54,42.54,0,0,0,6-.51c.61-.12,2.75-.53,2.72-.85,0-.48-4.74.16-10.38-1.19a32.92,32.92,0,0,1-6.81-2.56c-6.23-2.93-9.72-5.88-12.59-7.83-5.91-4-11.44-5.26-18.22-6.8a64.34,64.34,0,0,0-28.59-.51s-6.5,1.41-17.7,7.49a12.9,12.9,0,0,0-5.45,4.93,11.64,11.64,0,0,0-1.36,3.92,16.93,16.93,0,0,0-7-.51,17.53,17.53,0,0,0-6.91,2.56c-6.19,3.67-9,9.56-10.62,12.92a44,44,0,0,0-3.41,11.41c-1.53,9.31-.11,17,1.37,24.68,1.14,5.94,1.69,6.16,2.89,12.77a136.35,136.35,0,0,1,1.87,15Z"/><path class="cls-23" d="M783.83,147.34a11.13,11.13,0,0,0-5.45,4.77,10.93,10.93,0,0,0-1.36,5.1,59.16,59.16,0,0,0,10.72,5.62c10.13,4,18.74,4.2,24.35,4.26a75.26,75.26,0,0,0,30.12-5.28,73.5,73.5,0,0,0,31.15-24.51l-6-4.43c-1.3,1.29-3.12,3-5.41,4.89a80.45,80.45,0,0,1-21,12.47c-5.62,2.28-14.59,5.81-26.72,5.79a58.79,58.79,0,0,1-20.94-3.74A53.2,53.2,0,0,1,783.83,147.34Z"/><path class="cls-24" d="M831.06,227.51c-.43-.06-.18,3-2.55,6.13-1.92,2.54-3.8,2.8-4.47,5.23a5,5,0,0,0,.26,3.58c1.2,2.3,4.24,2.6,5,2.68.44,0,3,.46,3.32-.39.23-.56-.53-1.59-1.41-2-.69-.35-1-.13-1.91-.38s-2.23-.91-2.43-1.79c-.26-1.15,1.68-1.92,3.06-3.7C832.74,233.22,831.65,227.59,831.06,227.51Z"/><path class="cls-25" d="M778,221.77a55.51,55.51,0,0,1,8-2.43c.52-.11,1.74-.39,3.32-.63a80.87,80.87,0,0,1,9.45-.77c14.48-.64,19.19,1.45,20.68,2.17a24.45,24.45,0,0,1,2.93,1.66,36.16,36.16,0,0,1,7.28-.9,35.4,35.4,0,0,1,8.68.9,36,36,0,0,1,7.4-2.68,42.9,42.9,0,0,1,11.24-1,80.73,80.73,0,0,1,12.64,1.15c4.31.67,7.91,1.49,10.59,2.17l4,2.05,2.68.51c-.25,1.1-.51,2.21-.76,3.32l-2.43.63a42.5,42.5,0,0,1-.89,6.9c-.84,3.88-1.43,6.48-3.45,8.42a10.6,10.6,0,0,1-6,2.56c-8.54,1.37-18.55.84-23.11.51a11,11,0,0,1-8.3-4.22c-3.39-4-3.25-9.85-3.19-12.21a25.3,25.3,0,0,1,.51-4.51l2.3,2.68a19.86,19.86,0,0,0,0,2.27,18.5,18.5,0,0,0,.68,4.37,12.49,12.49,0,0,0,2.81,5.62,11.07,11.07,0,0,0,4.34,2.68c2,.8,3.88,1.09,8.3,1.27,6.23.26,9.35.4,13.27-.38a38.12,38.12,0,0,0,5.88-1.66A31.85,31.85,0,0,0,880,232a32.29,32.29,0,0,0,.13-7.28,66.77,66.77,0,0,0-8.43-2.55,67.72,67.72,0,0,0-15.83-1.66c-5.67-.06-8.73.44-11.74,1.91a18.66,18.66,0,0,0-2,1.11c-.11.82-.2,1.67-.26,2.55a40.44,40.44,0,0,0,.43,9,5.69,5.69,0,0,0-1.62-.7,5.88,5.88,0,0,0-1.33-.16c-.17-.5-.33-1-.48-1.55-1.18-4.26.38-7.12-.91-8.07-.38-.28-.68-.18-2.05-.09-.53,0,.46,0-6.72-.17-1.59,0-3.64-.06-6-.08-.07.78-.17,2-.26,3.57-.33,6,.08,6.93-.59,9.19a12.68,12.68,0,0,1-3.66,5.87c-1.42,1.25-3.11,2.09-6.55,2.9a48.52,48.52,0,0,1-13,1.1c-8.17-.24-12.31-.42-15.06-2.89-2-1.81-2.78-3.92-3.83-6.81a31.86,31.86,0,0,1-1.79-13.36l2.81,2.3c.2,1.93.42,3.53.6,4.68.93,6.15,1.79,7.77,2.3,8.6a12.24,12.24,0,0,0,2.55,3c1.55.35,3.74.78,6.38,1.11a64.43,64.43,0,0,0,11.92.43c5.44-.34,8.22-.54,10.8-2.56a11.6,11.6,0,0,0,3.15-3.83c.25-1.53.56-3.69.85-6.29.58-5.16.41-6.2-.17-7.07s-1.79-1.69-6-2.47a69.22,69.22,0,0,0-11.06-1c-6.71-.21-2.69.14-11.66.09-3.46,0-5.61-.08-7.41,1.44a7.24,7.24,0,0,0-2.21,3.92l-2.9-.5Z"/><path class="cls-26" d="M797.28,223.43a7.34,7.34,0,0,0-4.26,3.06,7.13,7.13,0,0,0-.68,5,8.89,8.89,0,0,0,3.57,5.62,9.51,9.51,0,0,0,6.9,1.27c1.76-.2,4.31-.5,6-2.63a7.42,7.42,0,0,0,1.45-5.37c-.64-5-6.48-7-6.73-7.06A10.19,10.19,0,0,0,797.28,223.43Z"/><path class="cls-26" d="M856.26,224.36a8.08,8.08,0,0,0-4.35,3.66,6.66,6.66,0,0,0-.42,3.66,7.13,7.13,0,0,0,1.79,3.41,10.54,10.54,0,0,0,9.53,3.48,8.29,8.29,0,0,0,5.53-3.31,6.33,6.33,0,0,0,1.19-4.86c-.67-2.75-3.74-4-6.47-5C860.61,224.42,858.62,223.61,856.26,224.36Z"/><path class="cls-26" d="M811.49,252.53c3.69.46,7.64.79,11.83.94a134.9,134.9,0,0,0,23.83-1.28,21.23,21.23,0,0,1-2.47,4.94,19,19,0,0,1-4.59,4.85,17.63,17.63,0,0,1-11.49,2.81,20.78,20.78,0,0,1-13.2-6.64A22.33,22.33,0,0,1,811.49,252.53Z"/><path class="cls-27" d="M794.08,225.18a7.71,7.71,0,0,0,3.37-.22c.73-.17,1.22-.36,1.36-.17s-.61,1-1.19,2a7.31,7.31,0,0,0-.85,4.86,6,6,0,0,0,3.06,4.17,5.58,5.58,0,0,0,3.57.34,6.11,6.11,0,0,0,3.75-2.56,6,6,0,0,0,.76-4.68c1.58,1,2.07,1,2.22.85.39-.42-1.16-2.95-3.41-4.51a10.81,10.81,0,0,0-6.55-1.7C796.8,223.58,794,225,794.08,225.18Z"/><path class="cls-27" d="M852.09,226.91a16.42,16.42,0,0,1,2.89-1.36,15.85,15.85,0,0,1,3.23-.76,7,7,0,0,0-1.78,9A6.33,6.33,0,0,0,861,237a5.63,5.63,0,0,0,4-1.1,5.92,5.92,0,0,0,2-5.71l2.73.77a10,10,0,0,0-3.15-4.43,11.29,11.29,0,0,0-4.77-2,11.41,11.41,0,0,0-3.74-.34A10.74,10.74,0,0,0,852.09,226.91Z"/><path class="cls-28" d="M802,226.32a3.28,3.28,0,0,0-1.95,1.53,4,4,0,0,0-1,3,3.4,3.4,0,0,0,2.9,2.89,3.34,3.34,0,0,0,2.55-1.1,3.88,3.88,0,0,0,.85-4.26A3.35,3.35,0,0,0,802,226.32Z"/><path class="cls-28" d="M860.26,226.15a3.5,3.5,0,0,0-2.3,2.3,4.68,4.68,0,0,0,3,5.19,3.6,3.6,0,0,0,3.49-1.28,3.77,3.77,0,0,0,.68-3.32A4.15,4.15,0,0,0,860.26,226.15Z"/><path class="cls-28" d="M794.08,225.18c.1.27,3.39-1.46,7.79-.82a10.66,10.66,0,0,1,4.26,1.45,12.63,12.63,0,0,1,3.74,4.08c.15-.09-.64-3.18-3.32-5.19a9.88,9.88,0,0,0-6.64-1.7C796.54,223.22,794,224.94,794.08,225.18Z"/><path class="cls-28" d="M854.55,224.87a18.24,18.24,0,0,1,5-.34,13,13,0,0,1,6.22,2.47,18.71,18.71,0,0,1,2.89,3.06c.16-.11-.91-3.08-3.74-4.93a9.45,9.45,0,0,0-4.09-1.45C857.4,223.25,854.51,224.68,854.55,224.87Z"/><path class="cls-28" d="M811.23,208.87c-3.23.16-5.94.43-8,.68-8.15,1-10.15,2.2-11.44,3.49a9.73,9.73,0,0,0-2.21,3.49,32.13,32.13,0,0,1,5.87-2,37.72,37.72,0,0,1,7.15-.94s1.69-.09,8.59,0Z"/><path class="cls-28" d="M851.66,209l-.09,4.68a74,74,0,0,1,12.69.09,22.79,22.79,0,0,1,7.65,1.87A20.33,20.33,0,0,1,874,216.8c.09.09.2.19.26.16.24-.13-.57-2.56-1.45-3.83-1.42-2.06-4-2.55-8.25-3.07C861.15,209.65,856.78,209.24,851.66,209Z"/></svg>