<svg id="Layer_1" data-name="Layer 1" xmlns="http://www.w3.org/2000/svg" viewBox="0 0 490 490"><defs><style>.cls-1{fill:#ff9553;}.cls-2{fill:#fff;}.cls-3{fill:#a8b6bf;}.cls-4{fill:#60d4af;}.cls-5{fill:#5a616a;}.cls-6{fill:#506572;}</style></defs><title>graph</title><circle class="cls-1" cx="244.91" cy="245.01" r="191.74"/><rect class="cls-2" x="157.85" y="235.98" width="37.28" height="81.7" rx="12"/><rect class="cls-3" x="202.28" y="206.36" width="37.28" height="110.55" rx="12"/><rect class="cls-4" x="249" y="221.94" width="37.28" height="95.23" rx="12"/><rect class="cls-5" x="295.72" y="179.04" width="35.49" height="137.87" rx="12"/><path class="cls-2" d="M154,308c2.19,6.47,6,9.24,7.58,10.21,3.64,2.28,7.36,2.37,14.8,2.55,5.57.14,8.36.21,11.07-1,6-2.72,8.4-9.06,9.2-11.57l1.52-.68c.83,2.61,3.17,8.61,9,11.74,3.79,2,7.4,2,13.28,1.88,5.15-.09,8.34-.14,11.91-1.88,5.84-2.83,8.68-8.22,9.88-11.06H246a13.18,13.18,0,0,0,2.38,6.13c1.12,1.5,3.41,3.83,10,5.44a46.26,46.26,0,0,0,20.93,0c1.17-.41,6.27-2.35,8.34-7.49a11.72,11.72,0,0,0,.85-4.08l4.09-.17a15.18,15.18,0,0,0,2,4.93,15.78,15.78,0,0,0,5.79,5.28c4.17,2.36,8.11,2.4,13.61,2.38,6.88,0,10.32,0,13.79-2.21a17.77,17.77,0,0,0,7.15-9.7,10.26,10.26,0,0,1,4.09,1.19,11.06,11.06,0,0,1,5.1,6.64,15.88,15.88,0,0,1,.17,11.91,15.65,15.65,0,0,1-4.76,6.13,19.58,19.58,0,0,1-5.45,2.9c-7.9,2.57-174.13.43-181.45.34a16.78,16.78,0,0,1-6-5.45,17.08,17.08,0,0,1-.17-18.38A16.34,16.34,0,0,1,154,308Z"/><path class="cls-2" d="M265.94,204.49l-48.85-15.83-3.24,1.19-50.38,36.43,2.38,2.72,52.26-36.77,49.36,17.2L310.87,164l7.15,6.47,2.55-18.39-19.4,2.05,6.47,6.29-40.85,44.43"/><circle class="cls-6" cx="165" cy="227.98" r="4.26"/><circle class="cls-6" cx="216.39" cy="190.42" r="4.28"/><circle class="cls-6" cx="267.72" cy="206.79" r="4.17"/></svg>